<?xml version="1.0" encoding="UTF-8" standalone="no"?>
<!DOCTYPE svg PUBLIC "-//W3C//DTD SVG 1.1//EN" "http://www.w3.org/Graphics/SVG/1.1/DTD/svg11.dtd">
<svg width="100%" height="100%" viewBox="0 0 384 512" version="1.1" xmlns="http://www.w3.org/2000/svg" xmlns:xlink="http://www.w3.org/1999/xlink" xml:space="preserve" xmlns:serif="http://www.serif.com/" style="fill-rule:evenodd;clip-rule:evenodd;stroke-linejoin:round;stroke-miterlimit:2;">
    <path d="M224,136L224,0L24,0C10.7,0 0,10.7 0,24L0,488C0,501.3 10.7,512 24,512L360,512C373.3,512 384,501.3 384,488L384,160L248,160C234.8,160 224,149.2 224,136ZM243.209,416.287C243.209,419.614 242.215,423.17 240.225,426.953C238.235,430.737 235.202,434.341 231.124,437.766C227.047,441.191 221.91,443.948 215.712,446.035C209.515,448.123 202.534,449.166 194.771,449.166C178.266,449.166 165.382,444.355 156.119,434.733C146.855,425.11 142.223,412.21 142.223,396.031C142.223,385.072 144.343,375.384 148.584,366.968C152.824,358.553 158.956,352.046 166.981,347.446C175.005,342.847 184.594,340.548 195.75,340.548C202.665,340.548 209.009,341.559 214.783,343.581C220.556,345.603 225.449,348.213 229.461,351.41C233.473,354.606 236.539,358.015 238.659,361.635C240.779,365.256 241.839,368.632 241.839,371.763C241.839,374.96 240.649,377.667 238.268,379.885C235.887,382.103 233,383.212 229.608,383.212C227.39,383.212 225.547,382.642 224.079,381.5C222.611,380.358 220.964,378.515 219.137,375.971C215.875,371.013 212.467,367.295 208.911,364.816C205.356,362.337 200.838,361.097 195.358,361.097C187.465,361.097 181.104,364.18 176.277,370.344C171.449,376.509 169.035,384.941 169.035,395.64C169.035,400.663 169.655,405.279 170.895,409.486C172.134,413.694 173.928,417.282 176.277,420.25C178.625,423.219 181.463,425.469 184.79,427.002C188.117,428.535 191.77,429.302 195.75,429.302C201.099,429.302 205.682,428.062 209.498,425.583C213.315,423.104 216.691,419.321 219.626,414.232C221.257,411.231 223.019,408.883 224.911,407.187C226.802,405.491 229.118,404.643 231.858,404.643C235.12,404.643 237.827,405.882 239.98,408.361C242.133,410.84 243.209,413.482 243.209,416.287ZM377,105L279.1,7C274.6,2.5 268.5,0 262.1,0L256,0L256,128L384,128L384,121.9C384,115.6 381.5,109.5 377,105Z" style="fill-rule:nonzero;"/>
</svg>
