<?xml version="1.0" encoding="UTF-8" standalone="no"?>
<!DOCTYPE svg PUBLIC "-//W3C//DTD SVG 1.1//EN" "http://www.w3.org/Graphics/SVG/1.1/DTD/svg11.dtd">
<svg width="100%" height="100%" viewBox="0 0 384 512" version="1.1" xmlns="http://www.w3.org/2000/svg" xmlns:xlink="http://www.w3.org/1999/xlink" xml:space="preserve" xmlns:serif="http://www.serif.com/" style="fill-rule:evenodd;clip-rule:evenodd;stroke-linejoin:round;stroke-miterlimit:2;">
    <path d="M224,136L224,0L24,0C10.7,0 0,10.7 0,24L0,488C0,501.3 10.7,512 24,512L360,512C373.3,512 384,501.3 384,488L384,160L248,160C234.8,160 224,149.2 224,136ZM127.733,413.483C127.733,416.81 126.738,420.365 124.748,424.149C122.759,427.932 119.725,431.537 115.648,434.962C111.571,438.387 106.433,441.143 100.236,443.23C94.038,445.318 87.058,446.362 79.295,446.362C62.79,446.362 49.906,441.551 40.642,431.928C31.379,422.306 26.747,409.405 26.747,393.227C26.747,382.267 28.867,372.579 33.108,364.164C37.348,355.748 43.48,349.241 51.504,344.642C59.528,340.043 69.118,337.743 80.274,337.743C87.189,337.743 93.533,338.754 99.306,340.776C105.08,342.799 109.972,345.408 113.984,348.605C117.997,351.801 121.063,355.21 123.183,358.831C125.303,362.451 126.363,365.827 126.363,368.959C126.363,372.155 125.173,374.863 122.791,377.081C120.41,379.299 117.524,380.408 114.131,380.408C111.913,380.408 110.07,379.837 108.602,378.695C107.135,377.554 105.487,375.711 103.661,373.166C100.399,368.208 96.99,364.49 93.435,362.011C89.88,359.532 85.362,358.292 79.882,358.292C71.988,358.292 65.628,361.375 60.8,367.54C55.973,373.705 53.559,382.136 53.559,392.835C53.559,397.858 54.179,402.474 55.418,406.682C56.658,410.889 58.452,414.477 60.8,417.446C63.149,420.414 65.987,422.665 69.314,424.198C72.641,425.731 76.294,426.497 80.274,426.497C85.623,426.497 90.206,425.258 94.022,422.779C97.838,420.3 101.214,416.516 104.15,411.428C105.781,408.427 107.542,406.078 109.434,404.382C111.326,402.686 113.642,401.838 116.382,401.838C119.644,401.838 122.351,403.077 124.504,405.556C126.657,408.035 127.733,410.677 127.733,413.483ZM208.17,423.464L182.923,423.464L182.923,386.181L145.445,386.181L145.445,360.543L182.923,360.543L182.923,323.065L208.17,323.065L208.17,360.543L245.844,360.543L245.844,386.181L208.17,386.181L208.17,423.464ZM325.008,423.464L299.762,423.464L299.762,386.181L262.283,386.181L262.283,360.543L299.762,360.543L299.762,323.065L325.008,323.065L325.008,360.543L362.682,360.543L362.682,386.181L325.008,386.181L325.008,423.464ZM377,105L279.1,7C274.6,2.5 268.5,0 262.1,0L256,0L256,128L384,128L384,121.9C384,115.6 381.5,109.5 377,105Z" style="fill-rule:nonzero;"/>
</svg>
