<?xml version="1.0" encoding="UTF-8" standalone="no"?>
<!DOCTYPE svg PUBLIC "-//W3C//DTD SVG 1.1//EN" "http://www.w3.org/Graphics/SVG/1.1/DTD/svg11.dtd">
<svg width="100%" height="100%" viewBox="0 0 384 512" version="1.1" xmlns="http://www.w3.org/2000/svg" xmlns:xlink="http://www.w3.org/1999/xlink" xml:space="preserve" xmlns:serif="http://www.serif.com/" style="fill-rule:evenodd;clip-rule:evenodd;stroke-linejoin:round;stroke-miterlimit:2;">
    <path d="M224,136L224,0L24,0C10.7,0 0,10.7 0,24L0,488C0,501.3 10.7,512 24,512L360,512C373.3,512 384,501.3 384,488L384,160L248,160C234.8,160 224,149.2 224,136ZM242.631,401.575C242.631,408.947 240.837,415.259 237.249,420.51C233.661,425.762 228.36,429.741 221.347,432.449C214.334,435.156 205.805,436.51 195.758,436.51C186.168,436.51 177.949,435.042 171.099,432.106C164.249,429.17 159.193,425.501 155.931,421.097C152.67,416.694 151.039,412.274 151.039,407.838C151.039,404.902 152.082,402.391 154.17,400.303C156.258,398.216 158.9,397.172 162.096,397.172C164.901,397.172 167.054,397.857 168.555,399.227C170.055,400.597 171.49,402.521 172.86,405C175.6,409.763 178.878,413.318 182.695,415.666C186.511,418.015 191.714,419.189 198.302,419.189C203.652,419.189 208.039,417.999 211.464,415.618C214.889,413.236 216.601,410.513 216.601,407.447C216.601,402.75 214.824,399.325 211.268,397.172C207.713,395.019 201.858,392.964 193.703,391.007C184.505,388.724 177.019,386.326 171.246,383.815C165.472,381.303 160.857,377.992 157.399,373.882C153.942,369.773 152.213,364.717 152.213,358.715C152.213,353.366 153.811,348.31 157.008,343.548C160.204,338.785 164.918,334.985 171.148,332.147C177.378,329.31 184.896,327.891 193.703,327.891C200.618,327.891 206.832,328.608 212.345,330.044C217.857,331.479 222.456,333.403 226.142,335.817C229.828,338.231 232.633,340.905 234.558,343.841C236.482,346.777 237.444,349.647 237.444,352.452C237.444,355.518 236.417,358.03 234.362,359.987C232.307,361.944 229.388,362.923 225.604,362.923C222.864,362.923 220.532,362.14 218.607,360.574C216.683,359.009 214.481,356.66 212.002,353.529C209.98,350.919 207.599,348.832 204.859,347.266C202.119,345.7 198.4,344.917 193.703,344.917C188.876,344.917 184.864,345.945 181.667,348C178.471,350.055 176.872,352.615 176.872,355.682C176.872,358.487 178.047,360.786 180.395,362.58C182.744,364.374 185.908,365.858 189.887,367.033C193.866,368.207 199.346,369.642 206.327,371.338C214.612,373.361 221.38,375.774 226.631,378.58C231.883,381.385 235.862,384.695 238.57,388.512C241.277,392.328 242.631,396.683 242.631,401.575ZM351.249,401.575C351.249,408.947 349.455,415.259 345.867,420.51C342.279,425.762 336.979,429.741 329.966,432.449C322.953,435.156 314.423,436.51 304.377,436.51C294.787,436.51 286.567,435.042 279.718,432.106C272.868,429.17 267.812,425.501 264.55,421.097C261.288,416.694 259.657,412.274 259.657,407.838C259.657,404.902 260.701,402.391 262.789,400.303C264.876,398.216 267.518,397.172 270.715,397.172C273.52,397.172 275.673,397.857 277.173,399.227C278.674,400.597 280.109,402.521 281.479,405C284.219,409.763 287.497,413.318 291.313,415.666C295.13,418.015 300.332,419.189 306.921,419.189C312.271,419.189 316.658,417.999 320.083,415.618C323.508,413.236 325.22,410.513 325.22,407.447C325.22,402.75 323.442,399.325 319.887,397.172C316.332,395.019 310.477,392.964 302.322,391.007C293.124,388.724 285.638,386.326 279.864,383.815C274.091,381.303 269.475,377.992 266.018,373.882C262.56,369.773 260.832,364.717 260.832,358.715C260.832,353.366 262.43,348.31 265.627,343.548C268.823,338.785 273.536,334.985 279.767,332.147C285.997,329.31 293.515,327.891 302.322,327.891C309.237,327.891 315.451,328.608 320.963,330.044C326.476,331.479 331.075,333.403 334.761,335.817C338.447,338.231 341.252,340.905 343.176,343.841C345.101,346.777 346.063,349.647 346.063,352.452C346.063,355.518 345.036,358.03 342.981,359.987C340.926,361.944 338.006,362.923 334.223,362.923C331.483,362.923 329.151,362.14 327.226,360.574C325.302,359.009 323.1,356.66 320.621,353.529C318.599,350.919 316.217,348.832 313.477,347.266C310.738,345.7 307.019,344.917 302.322,344.917C297.495,344.917 293.483,345.945 290.286,348C287.089,350.055 285.491,352.615 285.491,355.682C285.491,358.487 286.665,360.786 289.014,362.58C291.362,364.374 294.526,365.858 298.506,367.033C302.485,368.207 307.965,369.642 314.945,371.338C323.23,373.361 329.999,375.774 335.25,378.58C340.502,381.385 344.481,384.695 347.188,388.512C349.896,392.328 351.249,396.683 351.249,401.575ZM133.327,403.435C133.327,406.762 132.332,410.317 130.342,414.101C128.353,417.885 125.319,421.489 121.242,424.914C117.165,428.339 112.027,431.095 105.83,433.182C99.632,435.27 92.652,436.314 84.889,436.314C68.384,436.314 55.5,431.503 46.236,421.88C36.973,412.258 32.341,399.357 32.341,383.179C32.341,372.219 34.461,362.531 38.701,354.116C42.942,345.7 49.074,339.193 57.098,334.594C65.122,329.995 74.712,327.695 85.867,327.695C92.782,327.695 99.127,328.706 104.9,330.729C110.674,332.751 115.566,335.36 119.578,338.557C123.59,341.754 126.656,345.162 128.777,348.783C130.897,352.403 131.957,355.779 131.957,358.911C131.957,362.107 130.766,364.815 128.385,367.033C126.004,369.251 123.117,370.36 119.725,370.36C117.507,370.36 115.664,369.789 114.196,368.647C112.728,367.506 111.081,365.663 109.255,363.118C105.993,358.16 102.584,354.442 99.029,351.963C95.473,349.484 90.956,348.245 85.476,348.245C77.582,348.245 71.222,351.327 66.394,357.492C61.567,363.657 59.153,372.088 59.153,382.787C59.153,387.81 59.773,392.426 61.012,396.634C62.252,400.841 64.046,404.429 66.394,407.398C68.743,410.366 71.581,412.617 74.908,414.15C78.235,415.683 81.888,416.449 85.867,416.449C91.217,416.449 95.8,415.21 99.616,412.731C103.432,410.252 106.808,406.468 109.744,401.38C111.375,398.379 113.136,396.03 115.028,394.334C116.92,392.638 119.236,391.79 121.976,391.79C125.238,391.79 127.945,393.029 130.098,395.508C132.25,397.987 133.327,400.629 133.327,403.435ZM377,105L279.1,7C274.6,2.5 268.5,0 262.1,0L256,0L256,128L384,128L384,121.9C384,115.6 381.5,109.5 377,105Z" style="fill-rule:nonzero;"/>
</svg>
