<?xml version="1.0" encoding="UTF-8" standalone="no"?>
<!DOCTYPE svg PUBLIC "-//W3C//DTD SVG 1.1//EN" "http://www.w3.org/Graphics/SVG/1.1/DTD/svg11.dtd">
<svg width="100%" height="100%" viewBox="0 0 384 512" version="1.1" xmlns="http://www.w3.org/2000/svg" xmlns:xlink="http://www.w3.org/1999/xlink" xml:space="preserve" xmlns:serif="http://www.serif.com/" style="fill-rule:evenodd;clip-rule:evenodd;stroke-linejoin:round;stroke-miterlimit:2;">
    <path d="M224,136L224,0L24,0C10.7,0 0,10.7 0,24L0,488C0,501.3 10.7,512 24,512L360,512C373.3,512 384,501.3 384,488L384,160L248,160C234.8,160 224,149.2 224,136ZM72.951,359.968L72.951,434C72.951,439.277 72.778,443.581 72.432,446.912C72.085,450.243 71.592,452.655 70.953,454.147C67.328,463.421 59.627,468.058 47.848,468.058C41.239,468.058 36.229,467.152 32.818,465.34C29.407,463.528 27.701,460.889 27.701,457.425C27.701,454.867 28.474,452.775 30.019,451.149C31.565,449.523 33.59,448.711 36.095,448.711C36.415,448.711 36.935,448.751 37.654,448.83C38.374,448.91 39.44,449.004 40.852,449.11C42.265,449.217 43.238,449.27 43.77,449.27C46.702,449.27 48.661,448.124 49.647,445.832C50.633,443.541 51.126,439.437 51.126,433.52L51.126,359.968C51.126,355.651 52.138,352.4 54.164,350.215C56.189,348.03 58.854,346.937 62.158,346.937C65.356,346.937 67.955,348.016 69.953,350.175C71.952,352.333 72.951,355.598 72.951,359.968ZM203.986,360.528L221.655,410.096L240.682,358.369C242.174,354.212 243.64,351.267 245.079,349.535C246.518,347.803 248.704,346.937 251.635,346.937C254.407,346.937 256.765,347.87 258.71,349.735C260.656,351.601 261.628,353.759 261.628,356.211C261.628,357.17 261.455,358.289 261.109,359.569C260.762,360.848 260.363,362.047 259.91,363.166C259.457,364.286 258.937,365.565 258.351,367.004L237.404,418.97C236.818,420.462 236.058,422.354 235.126,424.646C234.193,426.938 233.154,428.897 232.008,430.522C230.862,432.148 229.449,433.414 227.771,434.32C226.092,435.226 224.053,435.679 221.655,435.679C218.563,435.679 216.098,434.973 214.259,433.56C212.421,432.148 211.061,430.602 210.182,428.923C209.303,427.245 207.824,423.927 205.745,418.97L184.958,367.563C184.479,366.284 183.986,365.005 183.479,363.726C182.973,362.447 182.547,361.141 182.2,359.809C181.854,358.476 181.681,357.33 181.681,356.371C181.681,354.878 182.134,353.399 183.04,351.934C183.946,350.468 185.198,349.269 186.797,348.336C188.396,347.403 190.128,346.937 191.994,346.937C195.618,346.937 198.11,347.976 199.469,350.055C200.828,352.134 202.334,355.625 203.986,360.528ZM150.501,423.367C145.224,427.471 140.121,430.549 135.191,432.601C130.261,434.653 124.731,435.679 118.602,435.679C113.005,435.679 108.089,434.573 103.851,432.361C99.614,430.149 96.35,427.151 94.058,423.367C91.766,419.583 90.62,415.479 90.62,411.055C90.62,405.086 92.512,399.996 96.296,395.785C100.08,391.574 105.277,388.75 111.886,387.311C113.272,386.991 116.71,386.271 122.199,385.152C127.689,384.033 132.393,383.007 136.31,382.074C140.228,381.141 144.478,380.009 149.062,378.676C148.795,372.92 147.636,368.696 145.584,366.004C143.532,363.313 139.282,361.967 132.832,361.967C127.289,361.967 123.119,362.74 120.321,364.286C117.522,365.831 115.124,368.15 113.125,371.241C111.127,374.332 109.714,376.371 108.888,377.357C108.062,378.343 106.29,378.836 103.572,378.836C101.12,378.836 99.001,378.05 97.216,376.478C95.43,374.905 94.537,372.893 94.537,370.442C94.537,366.604 95.897,362.873 98.615,359.249C101.333,355.625 105.57,352.64 111.326,350.295C117.083,347.95 124.251,346.777 132.832,346.777C142.426,346.777 149.968,347.91 155.458,350.175C160.947,352.44 164.825,356.024 167.09,360.928C169.355,365.831 170.488,372.334 170.488,380.435C170.488,385.552 170.475,389.896 170.448,393.467C170.421,397.038 170.381,401.008 170.328,405.379C170.328,409.483 171.008,413.76 172.367,418.21C173.726,422.661 174.405,425.526 174.405,426.805C174.405,429.043 173.353,431.082 171.247,432.921C169.142,434.76 166.757,435.679 164.092,435.679C161.854,435.679 159.642,434.626 157.456,432.521C155.271,430.416 152.953,427.364 150.501,423.367ZM330.304,423.367C325.027,427.471 319.924,430.549 314.994,432.601C310.064,434.653 304.534,435.679 298.404,435.679C292.808,435.679 287.891,434.573 283.654,432.361C279.417,430.149 276.152,427.151 273.86,423.367C271.569,419.583 270.423,415.479 270.423,411.055C270.423,405.086 272.315,399.996 276.099,395.785C279.883,391.574 285.08,388.75 291.689,387.311C293.075,386.991 296.512,386.271 302.002,385.152C307.492,384.033 312.195,383.007 316.113,382.074C320.03,381.141 324.281,380.009 328.865,378.676C328.598,372.92 327.439,368.696 325.387,366.004C323.335,363.313 319.084,361.967 312.635,361.967C307.092,361.967 302.922,362.74 300.123,364.286C297.325,365.831 294.927,368.15 292.928,371.241C290.929,374.332 289.517,376.371 288.691,377.357C287.865,378.343 286.093,378.836 283.374,378.836C280.923,378.836 278.804,378.05 277.018,376.478C275.233,374.905 274.34,372.893 274.34,370.442C274.34,366.604 275.699,362.873 278.418,359.249C281.136,355.625 285.373,352.64 291.129,350.295C296.885,347.95 304.054,346.777 312.635,346.777C322.229,346.777 329.771,347.91 335.26,350.175C340.75,352.44 344.628,356.024 346.893,360.928C349.158,365.831 350.291,372.334 350.291,380.435C350.291,385.552 350.277,389.896 350.251,393.467C350.224,397.038 350.184,401.008 350.131,405.379C350.131,409.483 350.81,413.76 352.169,418.21C353.529,422.661 354.208,425.526 354.208,426.805C354.208,429.043 353.155,431.082 351.05,432.921C348.945,434.76 346.56,435.679 343.895,435.679C341.656,435.679 339.444,434.626 337.259,432.521C335.074,430.416 332.755,427.364 330.304,423.367ZM149.062,391.788C145.864,392.96 141.214,394.199 135.111,395.505C129.008,396.811 124.784,397.77 122.439,398.383C120.094,398.996 117.856,400.196 115.724,401.981C113.592,403.767 112.526,406.258 112.526,409.456C112.526,412.761 113.778,415.572 116.283,417.891C118.788,420.209 122.066,421.368 126.117,421.368C130.434,421.368 134.418,420.422 138.069,418.53C141.72,416.638 144.398,414.2 146.104,411.215C148.076,407.91 149.062,402.474 149.062,394.906L149.062,391.788ZM328.865,391.788C325.667,392.96 321.016,394.199 314.914,395.505C308.811,396.811 304.587,397.77 302.242,398.383C299.897,398.996 297.658,400.196 295.526,401.981C293.394,403.767 292.328,406.258 292.328,409.456C292.328,412.761 293.581,415.572 296.086,417.891C298.591,420.209 301.869,421.368 305.92,421.368C310.237,421.368 314.221,420.422 317.872,418.53C321.523,416.638 324.201,414.2 325.907,411.215C327.879,407.91 328.865,402.474 328.865,394.906L328.865,391.788ZM62.158,336.784C59.12,336.784 56.522,335.851 54.364,333.985C52.205,332.12 51.126,329.482 51.126,326.071C51.126,322.979 52.232,320.434 54.444,318.435C56.655,316.437 59.227,315.437 62.158,315.437C64.983,315.437 67.488,316.344 69.674,318.156C71.859,319.968 72.951,322.606 72.951,326.071C72.951,329.428 71.885,332.053 69.754,333.945C67.622,335.837 65.09,336.784 62.158,336.784ZM377,105L279.1,7C274.6,2.5 268.5,0 262.1,0L256,0L256,128L384,128L384,121.9C384,115.6 381.5,109.5 377,105Z" style="fill-rule:nonzero;"/>
</svg>
