<?xml version="1.0" encoding="UTF-8" standalone="no"?>
<!DOCTYPE svg PUBLIC "-//W3C//DTD SVG 1.1//EN" "http://www.w3.org/Graphics/SVG/1.1/DTD/svg11.dtd">
<svg width="100%" height="100%" viewBox="0 0 384 512" version="1.1" xmlns="http://www.w3.org/2000/svg" xmlns:xlink="http://www.w3.org/1999/xlink" xml:space="preserve" xmlns:serif="http://www.serif.com/" style="fill-rule:evenodd;clip-rule:evenodd;stroke-linejoin:round;stroke-miterlimit:2;">
    <path d="M224,136L224,0L24,0C10.7,0 0,10.7 0,24L0,488C0,501.3 10.7,512 24,512L360,512C373.3,512 384,501.3 384,488L384,160L248,160C234.8,160 224,149.2 224,136ZM149.636,289.487L149.636,420.223C149.636,429.542 149.33,437.142 148.718,443.025C148.106,448.907 147.236,453.166 146.106,455.802C139.706,472.179 126.105,480.368 105.304,480.368C93.633,480.368 84.785,478.768 78.761,475.568C72.737,472.368 69.725,467.708 69.725,461.59C69.725,457.073 71.09,453.378 73.82,450.507C76.549,447.637 80.126,446.201 84.55,446.201C85.115,446.201 86.032,446.272 87.303,446.413C88.574,446.554 90.456,446.719 92.95,446.907C95.445,447.095 97.162,447.19 98.104,447.19C103.28,447.19 106.739,445.166 108.481,441.119C110.222,437.071 111.093,429.824 111.093,419.376L111.093,289.487C111.093,281.863 112.881,276.121 116.458,272.262C120.034,268.403 124.74,266.473 130.576,266.473C136.223,266.473 140.812,268.379 144.341,272.191C147.871,276.003 149.636,281.768 149.636,289.487ZM313.269,372.785C313.269,383.421 310.68,392.528 305.504,400.105C300.327,407.681 292.679,413.423 282.561,417.329C272.443,421.235 260.136,423.188 245.641,423.188C231.805,423.188 219.946,421.07 210.063,416.835C200.18,412.599 192.885,407.305 188.179,400.952C183.473,394.598 181.12,388.222 181.12,381.821C181.12,377.586 182.626,373.962 185.638,370.95C188.65,367.938 192.462,366.432 197.074,366.432C201.121,366.432 204.227,367.42 206.392,369.397C208.557,371.374 210.628,374.15 212.604,377.727C216.557,384.598 221.287,389.728 226.793,393.116C232.299,396.504 239.806,398.199 249.312,398.199C257.03,398.199 263.36,396.481 268.301,393.045C273.243,389.61 275.714,385.68 275.714,381.256C275.714,374.48 273.149,369.538 268.019,366.432C262.889,363.326 254.442,360.361 242.676,357.537C229.405,354.243 218.605,350.784 210.275,347.16C201.945,343.537 195.286,338.76 190.297,332.83C185.309,326.9 182.814,319.606 182.814,310.947C182.814,303.228 185.12,295.934 189.732,289.063C194.344,282.192 201.145,276.709 210.133,272.615C219.122,268.521 229.97,266.473 242.676,266.473C252.654,266.473 261.619,267.509 269.572,269.58C277.526,271.65 284.161,274.427 289.479,277.909C294.797,281.392 298.844,285.251 301.621,289.487C304.398,293.722 305.786,297.863 305.786,301.911C305.786,306.335 304.303,309.958 301.339,312.782C298.374,315.606 294.162,317.018 288.703,317.018C284.749,317.018 281.385,315.888 278.608,313.629C275.831,311.37 272.655,307.982 269.078,303.464C266.16,299.699 262.725,296.687 258.771,294.428C254.818,292.169 249.453,291.04 242.676,291.04C235.711,291.04 229.923,292.522 225.311,295.487C220.699,298.452 218.393,302.146 218.393,306.57C218.393,310.617 220.087,313.935 223.475,316.523C226.864,319.112 231.429,321.253 237.17,322.947C242.912,324.641 250.818,326.712 260.889,329.159C272.843,332.077 282.608,335.56 290.185,339.607C297.762,343.654 303.503,348.431 307.41,353.937C311.316,359.443 313.269,365.726 313.269,372.785ZM130.576,248.543C125.211,248.543 120.622,246.896 116.81,243.602C112.999,240.307 111.093,235.648 111.093,229.624C111.093,224.165 113.046,219.671 116.952,216.141C120.858,212.612 125.399,210.847 130.576,210.847C135.565,210.847 139.988,212.447 143.847,215.647C147.706,218.847 149.636,223.506 149.636,229.624C149.636,235.554 147.753,240.19 143.989,243.531C140.224,246.872 135.753,248.543 130.576,248.543ZM377,105L279.1,7C274.6,2.5 268.5,0 262.1,0L256,0L256,128L384,128L384,121.9C384,115.6 381.5,109.5 377,105Z" style="fill-rule:nonzero;"/>
</svg>
