<?xml version="1.0" encoding="UTF-8" standalone="no"?>
<!DOCTYPE svg PUBLIC "-//W3C//DTD SVG 1.1//EN" "http://www.w3.org/Graphics/SVG/1.1/DTD/svg11.dtd">
<svg width="100%" height="100%" viewBox="0 0 384 512" version="1.1" xmlns="http://www.w3.org/2000/svg" xmlns:xlink="http://www.w3.org/1999/xlink" xml:space="preserve" xmlns:serif="http://www.serif.com/" style="fill-rule:evenodd;clip-rule:evenodd;stroke-linejoin:round;stroke-miterlimit:2;">
    <path d="M224,136L224,0L24,0C10.7,0 0,10.7 0,24L0,488C0,501.3 10.7,512 24,512L360,512C373.3,512 384,501.3 384,488L384,160L248,160C234.8,160 224,149.2 224,136ZM128.785,337.81C135.574,342.018 140.882,346.728 144.707,351.94C148.532,357.151 151.209,363.797 152.74,371.878C154.27,379.959 155.035,390.31 155.035,402.933C155.035,412.401 155.25,419.382 155.68,423.876C156.11,428.371 156.971,431.789 158.262,434.132C159.553,436.475 161.107,438.005 162.924,438.722C164.741,439.44 167.849,440.133 172.248,440.802C175.882,441.28 178.894,443.05 181.285,446.11C183.675,449.17 184.871,453.186 184.871,458.159C184.871,469.73 177.842,475.515 163.785,475.515C155.082,475.515 147.313,473.698 140.475,470.065C133.638,466.431 128.354,461.291 124.625,454.645C120.895,447.998 118.983,440.372 118.887,431.765C118.6,417.23 118.313,405.563 118.026,396.765C117.74,387.968 117.309,382.278 116.735,379.696C115.301,373.289 113.173,368.459 110.352,365.208C107.531,361.957 103.849,358.92 99.307,356.099C94.765,353.278 91.537,350.744 89.625,348.497C87.712,346.25 86.756,342.687 86.756,337.81C86.756,330.734 89.529,325.427 95.076,321.888C101.961,317.585 106.862,313.927 109.778,310.915C112.695,307.903 114.751,304.03 115.946,299.296C117.142,294.562 117.835,289.399 118.026,283.804C118.218,278.21 118.505,264.75 118.887,243.425C119.174,230.228 123.358,219.685 131.438,211.796C139.519,203.907 150.301,199.962 163.785,199.962C177.842,199.962 184.871,205.652 184.871,217.032C184.871,222.196 183.699,226.26 181.356,229.224C179.013,232.189 175.977,233.91 172.248,234.388C166.701,235.153 162.828,236.301 160.629,237.831C158.429,239.361 156.995,242.325 156.326,246.724C155.656,251.123 155.226,259.634 155.035,272.257C154.843,284.593 154.102,294.706 152.811,302.595C151.52,310.485 148.986,317.202 145.209,322.749C141.431,328.295 135.957,333.316 128.785,337.81ZM253.867,337.81C248.703,334.559 244.495,331.164 241.244,327.626C237.992,324.088 235.315,319.784 233.211,314.716C231.107,309.648 229.625,303.647 228.764,296.714C227.904,289.781 227.473,281.629 227.473,272.257C227.473,263.172 227.282,256.215 226.899,251.386C226.517,246.557 225.752,243.043 224.604,240.843C223.457,238.644 221.855,237.138 219.799,236.325C217.743,235.512 214.611,234.866 210.404,234.388C206.865,233.91 203.877,232.189 201.438,229.224C199,226.26 197.781,222.196 197.781,217.032C197.781,205.652 204.714,199.962 218.58,199.962C227.473,199.962 235.291,201.755 242.033,205.341C248.774,208.927 254.082,214.043 257.955,220.689C261.828,227.336 263.812,234.914 263.908,243.425C264.481,275.174 265.151,292.626 265.916,295.782C267.446,302.093 269.693,306.899 272.658,310.198C275.622,313.497 279.208,316.414 283.416,318.948C287.624,321.482 290.755,323.992 292.811,326.478C294.867,328.965 295.895,332.742 295.895,337.81C295.895,344.983 293.17,350.242 287.719,353.589C281.025,357.701 276.172,361.311 273.16,364.419C270.147,367.527 268.044,371.4 266.848,376.038C265.653,380.676 264.936,387.633 264.697,396.909C264.458,406.185 264.195,417.804 263.908,431.765C263.621,444.962 259.389,455.553 251.213,463.538C243.037,471.523 232.159,475.515 218.58,475.515C211.886,475.515 206.746,474.033 203.16,471.069C199.574,468.104 197.781,463.801 197.781,458.159C197.781,455.003 198.354,452.11 199.502,449.481C200.649,446.851 202.156,444.819 204.02,443.384C205.885,441.95 208.013,441.089 210.404,440.802C214.707,440.229 217.91,439.511 220.014,438.651C222.118,437.79 223.72,436.164 224.82,433.774C225.919,431.383 226.636,427.869 226.971,423.231C227.306,418.593 227.473,411.827 227.473,402.933C227.664,389.737 228.429,379.409 229.768,371.95C231.107,364.491 233.641,358.084 237.371,352.728C241.1,347.373 246.599,342.401 253.867,337.81ZM377,105L279.1,7C274.6,2.5 268.5,0 262.1,0L256,0L256,128L384,128L384,121.9C384,115.6 381.5,109.5 377,105Z" style="fill-rule:nonzero;"/>
</svg>
