<?xml version="1.0" encoding="UTF-8" standalone="no"?>
<!DOCTYPE svg PUBLIC "-//W3C//DTD SVG 1.1//EN" "http://www.w3.org/Graphics/SVG/1.1/DTD/svg11.dtd">
<svg width="100%" height="100%" viewBox="0 0 384 512" version="1.1" xmlns="http://www.w3.org/2000/svg" xmlns:xlink="http://www.w3.org/1999/xlink" xml:space="preserve" xmlns:serif="http://www.serif.com/" style="fill-rule:evenodd;clip-rule:evenodd;stroke-linejoin:round;stroke-miterlimit:2;">
    <path d="M224,136L224,0L24,0C10.7,0 0,10.7 0,24L0,488C0,501.3 10.7,512 24,512L360,512C373.3,512 384,501.3 384,488L384,160L248,160C234.8,160 224,149.2 224,136ZM112.258,340.328L112.258,430.942C112.258,437.4 112.046,442.668 111.622,446.745C111.198,450.822 110.594,453.774 109.811,455.601C105.375,466.952 95.949,472.628 81.531,472.628C73.442,472.628 67.31,471.519 63.135,469.301C58.96,467.083 56.872,463.853 56.872,459.613C56.872,456.482 57.818,453.921 59.71,451.931C61.602,449.942 64.081,448.947 67.147,448.947C67.538,448.947 68.174,448.996 69.055,449.094C69.936,449.191 71.24,449.306 72.969,449.436C74.698,449.567 75.888,449.632 76.541,449.632C80.129,449.632 82.526,448.229 83.733,445.424C84.94,442.619 85.543,437.596 85.543,430.354L85.543,340.328C85.543,335.044 86.783,331.064 89.262,328.39C91.741,325.715 95.003,324.378 99.047,324.378C102.962,324.378 106.142,325.699 108.588,328.341C111.035,330.983 112.258,334.979 112.258,340.328ZM225.671,398.062C225.671,405.434 223.877,411.746 220.289,416.997C216.701,422.249 211.401,426.228 204.388,428.936C197.375,431.643 188.845,432.997 178.799,432.997C169.209,432.997 160.989,431.529 154.14,428.593C147.29,425.657 142.234,421.988 138.972,417.584C135.71,413.181 134.079,408.761 134.079,404.325C134.079,401.389 135.123,398.878 137.211,396.79C139.298,394.703 141.94,393.659 145.137,393.659C147.942,393.659 150.095,394.344 151.595,395.714C153.096,397.084 154.531,399.008 155.901,401.487C158.641,406.25 161.919,409.805 165.735,412.153C169.552,414.502 174.754,415.676 181.343,415.676C186.693,415.676 191.08,414.486 194.505,412.105C197.93,409.723 199.642,407 199.642,403.934C199.642,399.237 197.864,395.812 194.309,393.659C190.754,391.506 184.899,389.451 176.744,387.494C167.546,385.211 160.06,382.813 154.286,380.302C148.513,377.79 143.897,374.479 140.44,370.369C136.982,366.26 135.254,361.204 135.254,355.202C135.254,349.853 136.852,344.797 140.049,340.034C143.245,335.272 147.958,331.472 154.189,328.634C160.419,325.797 167.937,324.378 176.744,324.378C183.659,324.378 189.873,325.095 195.385,326.531C200.898,327.966 205.497,329.89 209.183,332.304C212.869,334.718 215.674,337.392 217.598,340.328C219.523,343.264 220.485,346.134 220.485,348.939C220.485,352.005 219.458,354.517 217.403,356.474C215.348,358.431 212.428,359.41 208.645,359.41C205.905,359.41 203.573,358.627 201.648,357.061C199.724,355.496 197.522,353.147 195.043,350.016C193.021,347.406 190.639,345.319 187.9,343.753C185.16,342.187 181.441,341.404 176.744,341.404C171.917,341.404 167.905,342.432 164.708,344.487C161.511,346.542 159.913,349.102 159.913,352.168C159.913,354.974 161.087,357.273 163.436,359.067C165.784,360.861 168.948,362.345 172.928,363.52C176.907,364.694 182.387,366.129 189.367,367.825C197.652,369.848 204.421,372.261 209.672,375.066C214.924,377.872 218.903,381.182 221.61,384.999C224.318,388.815 225.671,393.17 225.671,398.062ZM306.206,421.939L286.831,393.463L266.966,421.939C264.096,425.918 261.666,428.756 259.676,430.452C257.686,432.148 255.158,432.997 252.092,432.997C248.7,432.997 245.813,431.936 243.432,429.816C241.051,427.696 239.86,425.266 239.86,422.526C239.86,419.721 241.687,415.709 245.34,410.49L269.51,375.849L248.08,346.982C244.362,342.22 242.502,338.077 242.502,334.555C242.502,331.815 243.611,329.434 245.83,327.411C248.048,325.389 250.951,324.378 254.539,324.378C257.67,324.378 260.263,325.258 262.318,327.02C264.373,328.781 266.77,331.554 269.51,335.337L286.831,359.018L303.662,335.337C306.467,331.423 308.897,328.618 310.952,326.922C313.007,325.226 315.567,324.378 318.633,324.378C322.156,324.378 325.076,325.373 327.391,327.362C329.707,329.352 330.865,331.749 330.865,334.555C330.865,336.577 330.392,338.518 329.446,340.377C328.5,342.236 327.049,344.438 325.092,346.982L303.662,375.849L327.832,410.49C331.616,415.905 333.507,419.982 333.507,422.722C333.507,425.527 332.333,427.941 329.985,429.963C327.636,431.985 324.733,432.997 321.276,432.997C318.209,432.997 315.616,432.116 313.496,430.354C311.376,428.593 308.946,425.788 306.206,421.939ZM99.047,311.95C95.329,311.95 92.149,310.809 89.507,308.525C86.864,306.242 85.543,303.013 85.543,298.838C85.543,295.054 86.897,291.939 89.604,289.493C92.312,287.046 95.459,285.823 99.047,285.823C102.505,285.823 105.571,286.932 108.246,289.15C110.92,291.368 112.258,294.597 112.258,298.838C112.258,302.948 110.953,306.16 108.344,308.476C105.734,310.792 102.635,311.95 99.047,311.95ZM377,105L279.1,7C274.6,2.5 268.5,0 262.1,0L256,0L256,128L384,128L384,121.9C384,115.6 381.5,109.5 377,105Z" style="fill-rule:nonzero;"/>
</svg>
