<?xml version="1.0" encoding="UTF-8" standalone="no"?>
<!DOCTYPE svg PUBLIC "-//W3C//DTD SVG 1.1//EN" "http://www.w3.org/Graphics/SVG/1.1/DTD/svg11.dtd">
<svg width="100%" height="100%" viewBox="0 0 384 512" version="1.1" xmlns="http://www.w3.org/2000/svg" xmlns:xlink="http://www.w3.org/1999/xlink" xml:space="preserve" xmlns:serif="http://www.serif.com/" style="fill-rule:evenodd;clip-rule:evenodd;stroke-linejoin:round;stroke-miterlimit:2;">
    <path d="M224,136L224,0L24,0C10.7,0 0,10.7 0,24L0,488C0,501.3 10.7,512 24,512L360,512C373.3,512 384,501.3 384,488L384,160L248,160C234.8,160 224,149.2 224,136ZM226.612,339.847L229.548,339.847L229.548,323.799C229.548,319.493 229.662,316.117 229.89,313.671C230.118,311.224 230.755,309.121 231.798,307.359C232.842,305.533 234.343,304.048 236.3,302.907C238.257,301.765 240.442,301.194 242.856,301.194C246.248,301.194 249.314,302.466 252.054,305.011C253.881,306.707 255.039,308.778 255.528,311.224C256.017,313.671 256.262,317.145 256.262,321.646L256.262,339.847L266.047,339.847C269.831,339.847 272.718,340.744 274.708,342.538C276.697,344.332 277.692,346.632 277.692,349.437C277.692,353.025 276.273,355.536 273.435,356.972C270.598,358.407 266.537,359.124 261.253,359.124L256.262,359.124L256.262,408.247C256.262,412.423 256.409,415.635 256.702,417.886C256.996,420.137 257.779,421.963 259.051,423.366C260.323,424.769 262.394,425.47 265.265,425.47C266.83,425.47 268.95,425.193 271.625,424.638C274.3,424.084 276.387,423.806 277.888,423.806C280.041,423.806 281.981,424.671 283.71,426.399C285.439,428.128 286.303,430.265 286.303,432.809C286.303,437.115 283.955,440.409 279.258,442.692C274.561,444.976 267.809,446.117 259.002,446.117C250.652,446.117 244.324,444.715 240.018,441.909C235.712,439.104 232.891,435.223 231.554,430.265C230.216,425.307 229.548,418.685 229.548,410.4L229.548,359.124L226.025,359.124C222.176,359.124 219.24,358.211 217.218,356.384C215.196,354.558 214.184,352.242 214.184,349.437C214.184,346.632 215.245,344.332 217.365,342.538C219.485,340.744 222.567,339.847 226.612,339.847ZM176.804,433.885L153.221,395.135L138.738,408.835L138.738,430.069C138.738,435.223 137.385,439.186 134.677,441.958C131.97,444.731 128.855,446.117 125.332,446.117C121.222,446.117 117.993,444.747 115.645,442.007C113.296,439.267 112.122,435.223 112.122,429.873L112.122,315.97C112.122,310.034 113.264,305.516 115.547,302.417C117.83,299.319 121.092,297.769 125.332,297.769C129.442,297.769 132.704,299.172 135.118,301.977C137.532,304.782 138.738,308.925 138.738,314.405L138.738,379.185L168.78,347.675C172.498,343.761 175.336,341.086 177.293,339.651C179.25,338.216 181.631,337.498 184.437,337.498C187.764,337.498 190.536,338.559 192.754,340.679C194.972,342.799 196.081,345.457 196.081,348.654C196.081,352.568 192.461,357.787 185.219,364.311L171.03,377.325L198.43,420.381C200.452,423.578 201.904,426.008 202.784,427.672C203.665,429.335 204.105,430.917 204.105,432.418C204.105,436.658 202.947,440.001 200.632,442.448C198.316,444.894 195.266,446.117 191.482,446.117C188.22,446.117 185.709,445.237 183.947,443.475C182.186,441.714 179.805,438.517 176.804,433.885ZM377,105L279.1,7C274.6,2.5 268.5,0 262.1,0L256,0L256,128L384,128L384,121.9C384,115.6 381.5,109.5 377,105Z" style="fill-rule:nonzero;"/>
</svg>
