<?xml version="1.0" encoding="UTF-8" standalone="no"?>
<!DOCTYPE svg PUBLIC "-//W3C//DTD SVG 1.1//EN" "http://www.w3.org/Graphics/SVG/1.1/DTD/svg11.dtd">
<svg width="100%" height="100%" viewBox="0 0 384 512" version="1.1" xmlns="http://www.w3.org/2000/svg" xmlns:xlink="http://www.w3.org/1999/xlink" xml:space="preserve" xmlns:serif="http://www.serif.com/" style="fill-rule:evenodd;clip-rule:evenodd;stroke-linejoin:round;stroke-miterlimit:2;">
    <path d="M224,136L224,0L24,0C10.7,0 0,10.7 0,24L0,488C0,501.3 10.7,512 24,512L360,512C373.3,512 384,501.3 384,488L384,160L248,160C234.8,160 224,149.2 224,136ZM236.967,438.752L239.414,432.783L206.534,349.998C204.512,345.235 203.501,341.778 203.501,339.625C203.501,337.342 204.088,335.221 205.262,333.264C206.437,331.307 208.051,329.742 210.106,328.567C212.161,327.393 214.298,326.806 216.516,326.806C220.365,326.806 223.268,328.029 225.225,330.476C227.182,332.922 228.911,336.428 230.411,340.995L253.015,406.753L274.446,345.594C276.142,340.636 277.675,336.755 279.045,333.949C280.415,331.144 281.866,329.252 283.399,328.274C284.932,327.295 287.102,326.806 289.907,326.806C291.929,326.806 293.87,327.344 295.729,328.421C297.588,329.497 299.023,330.948 300.035,332.775C301.046,334.602 301.551,336.526 301.551,338.549C301.29,339.788 300.866,341.549 300.279,343.833C299.692,346.116 298.975,348.432 298.126,350.78L263.29,441.981C260.289,450.005 257.354,456.3 254.483,460.867C251.613,465.434 247.813,468.94 243.083,471.386C238.354,473.833 231.977,475.056 223.953,475.056C216.124,475.056 210.253,474.208 206.339,472.512C202.425,470.816 200.467,467.717 200.467,463.215C200.467,460.149 201.397,457.785 203.256,456.121C205.116,454.457 207.872,453.626 211.525,453.626C212.96,453.626 214.363,453.821 215.733,454.213C217.429,454.604 218.897,454.8 220.136,454.8C223.202,454.8 225.616,454.343 227.378,453.43C229.139,452.517 230.721,450.935 232.123,448.684C233.526,446.433 235.141,443.123 236.967,438.752ZM114.355,341.778L114.355,345.007C119.378,338.809 124.597,334.259 130.012,331.356C135.427,328.453 141.559,327.002 148.409,327.002C156.629,327.002 164.196,329.122 171.111,333.362C178.026,337.603 183.49,343.8 187.502,351.955C191.514,360.109 193.52,369.764 193.52,380.92C193.52,389.139 192.362,396.691 190.046,403.573C187.73,410.455 184.55,416.229 180.505,420.893C176.46,425.558 171.682,429.146 166.169,431.657C160.657,434.169 154.737,435.425 148.409,435.425C140.776,435.425 134.367,433.892 129.18,430.826C123.994,427.759 119.052,423.258 114.355,417.322L114.355,457.442C114.355,469.185 110.082,475.056 101.536,475.056C96.513,475.056 93.186,473.539 91.555,470.506C89.924,467.472 89.109,463.052 89.109,457.246L89.109,341.973C89.109,336.885 90.218,333.085 92.436,330.573C94.654,328.062 97.687,326.806 101.536,326.806C105.32,326.806 108.402,328.094 110.784,330.671C113.165,333.248 114.355,336.95 114.355,341.778ZM166.708,380.626C166.708,373.581 165.631,367.53 163.478,362.474C161.326,357.418 158.341,353.537 154.525,350.829C150.708,348.122 146.484,346.768 141.852,346.768C134.481,346.768 128.267,349.671 123.211,355.477C118.155,361.283 115.627,369.829 115.627,381.115C115.627,391.749 118.139,400.018 123.162,405.922C128.185,411.825 134.415,414.777 141.852,414.777C146.289,414.777 150.398,413.489 154.182,410.912C157.966,408.335 160.999,404.47 163.283,399.316C165.566,394.163 166.708,387.933 166.708,380.626ZM377,105L279.1,7C274.6,2.5 268.5,0 262.1,0L256,0L256,128L384,128L384,121.9C384,115.6 381.5,109.5 377,105Z" style="fill-rule:nonzero;"/>
</svg>
