<?xml version="1.0" encoding="UTF-8" standalone="no"?>
<!DOCTYPE svg PUBLIC "-//W3C//DTD SVG 1.1//EN" "http://www.w3.org/Graphics/SVG/1.1/DTD/svg11.dtd">
<svg width="100%" height="100%" viewBox="0 0 384 512" version="1.1" xmlns="http://www.w3.org/2000/svg" xmlns:xlink="http://www.w3.org/1999/xlink" xml:space="preserve" xmlns:serif="http://www.serif.com/" style="fill-rule:evenodd;clip-rule:evenodd;stroke-linejoin:round;stroke-miterlimit:2;">
    <path d="M224,136L224,0L24,0C10.7,0 0,10.7 0,24L0,488C0,501.3 10.7,512 24,512L360,512C373.3,512 384,501.3 384,488L384,160L248,160C234.8,160 224,149.2 224,136ZM103.431,405.994C103.431,411.534 102.083,416.277 99.387,420.223C96.691,424.169 92.708,427.159 87.438,429.194C82.168,431.228 75.759,432.245 68.209,432.245C61.003,432.245 54.827,431.142 49.679,428.936C44.532,426.73 40.733,423.973 38.282,420.664C35.831,417.355 34.605,414.034 34.605,410.7C34.605,408.495 35.39,406.607 36.958,405.039C38.527,403.47 40.512,402.686 42.914,402.686C45.022,402.686 46.64,403.2 47.768,404.23C48.895,405.259 49.973,406.705 51.003,408.568C53.062,412.147 55.525,414.818 58.393,416.583C61.261,418.348 65.17,419.23 70.121,419.23C74.141,419.23 77.438,418.336 80.011,416.546C82.585,414.757 83.872,412.71 83.872,410.406C83.872,406.877 82.536,404.303 79.864,402.686C77.192,401.068 72.793,399.524 66.665,398.053C59.753,396.337 54.128,394.536 49.79,392.648C45.451,390.761 41.983,388.273 39.385,385.185C36.787,382.097 35.488,378.298 35.488,373.788C35.488,369.768 36.689,365.969 39.091,362.39C41.493,358.812 45.035,355.956 49.716,353.824C54.398,351.691 60.047,350.625 66.665,350.625C71.861,350.625 76.531,351.164 80.673,352.243C84.815,353.321 88.271,354.767 91.041,356.581C93.811,358.395 95.918,360.405 97.365,362.611C98.811,364.817 99.534,366.974 99.534,369.082C99.534,371.386 98.762,373.273 97.217,374.744C95.673,376.214 93.48,376.95 90.636,376.95C88.578,376.95 86.825,376.361 85.379,375.185C83.933,374.008 82.278,372.243 80.416,369.89C78.896,367.93 77.107,366.361 75.048,365.184C72.989,364.008 70.195,363.42 66.665,363.42C63.038,363.42 60.023,364.192 57.621,365.736C55.219,367.28 54.018,369.204 54.018,371.508C54.018,373.616 54.9,375.344 56.665,376.692C58.43,378.04 60.807,379.155 63.797,380.038C66.788,380.92 70.905,381.999 76.151,383.273C82.376,384.793 87.462,386.607 91.409,388.715C95.355,390.822 98.345,393.31 100.379,396.178C102.414,399.046 103.431,402.318 103.431,405.994ZM274.539,405.994C274.539,411.534 273.191,416.277 270.495,420.223C267.799,424.169 263.816,427.159 258.546,429.194C253.276,431.228 246.867,432.245 239.317,432.245C232.111,432.245 225.935,431.142 220.787,428.936C215.64,426.73 211.841,423.973 209.39,420.664C206.939,417.355 205.713,414.034 205.713,410.7C205.713,408.495 206.498,406.607 208.066,405.039C209.635,403.47 211.62,402.686 214.022,402.686C216.13,402.686 217.748,403.2 218.876,404.23C220.003,405.259 221.081,406.705 222.111,408.568C224.17,412.147 226.633,414.818 229.501,416.583C232.369,418.348 236.278,419.23 241.229,419.23C245.249,419.23 248.546,418.336 251.119,416.546C253.693,414.757 254.98,412.71 254.98,410.406C254.98,406.877 253.644,404.303 250.972,402.686C248.3,401.068 243.901,399.524 237.773,398.053C230.861,396.337 225.236,394.536 220.898,392.648C216.559,390.761 213.091,388.273 210.493,385.185C207.895,382.097 206.596,378.298 206.596,373.788C206.596,369.768 207.797,365.969 210.199,362.39C212.601,358.812 216.143,355.956 220.824,353.824C225.506,351.691 231.155,350.625 237.773,350.625C242.969,350.625 247.639,351.164 251.781,352.243C255.923,353.321 259.379,354.767 262.149,356.581C264.919,358.395 267.026,360.405 268.473,362.611C269.919,364.817 270.642,366.974 270.642,369.082C270.642,371.386 269.87,373.273 268.326,374.744C266.781,376.214 264.588,376.95 261.744,376.95C259.686,376.95 257.933,376.361 256.487,375.185C255.041,374.008 253.386,372.243 251.524,369.89C250.004,367.93 248.215,366.361 246.156,365.184C244.097,364.008 241.303,363.42 237.773,363.42C234.146,363.42 231.131,364.192 228.729,365.736C226.327,367.28 225.126,369.204 225.126,371.508C225.126,373.616 226.008,375.344 227.773,376.692C229.538,378.04 231.915,379.155 234.905,380.038C237.896,380.92 242.013,381.999 247.259,383.273C253.484,384.793 258.57,386.607 262.517,388.715C266.463,390.822 269.453,393.31 271.487,396.178C273.522,399.046 274.539,402.318 274.539,405.994ZM356.159,405.994C356.159,411.534 354.811,416.277 352.115,420.223C349.419,424.169 345.436,427.159 340.166,429.194C334.896,431.228 328.487,432.245 320.937,432.245C313.731,432.245 307.555,431.142 302.407,428.936C297.26,426.73 293.461,423.973 291.01,420.664C288.559,417.355 287.333,414.034 287.333,410.7C287.333,408.495 288.118,406.607 289.686,405.039C291.255,403.47 293.24,402.686 295.642,402.686C297.75,402.686 299.368,403.2 300.496,404.23C301.623,405.259 302.702,406.705 303.731,408.568C305.79,412.147 308.253,414.818 311.121,416.583C313.989,418.348 317.898,419.23 322.849,419.23C326.869,419.23 330.166,418.336 332.739,416.546C335.313,414.757 336.6,412.71 336.6,410.406C336.6,406.877 335.264,404.303 332.592,402.686C329.92,401.068 325.521,399.524 319.393,398.053C312.481,396.337 306.856,394.536 302.518,392.648C298.179,390.761 294.711,388.273 292.113,385.185C289.515,382.097 288.216,378.298 288.216,373.788C288.216,369.768 289.417,365.969 291.819,362.39C294.221,358.812 297.763,355.956 302.444,353.824C307.126,351.691 312.775,350.625 319.393,350.625C324.589,350.625 329.259,351.164 333.401,352.243C337.543,353.321 340.999,354.767 343.769,356.581C346.539,358.395 348.647,360.405 350.093,362.611C351.539,364.817 352.262,366.974 352.262,369.082C352.262,371.386 351.49,373.273 349.946,374.744C348.401,376.214 346.208,376.95 343.364,376.95C341.306,376.95 339.553,376.361 338.107,375.185C336.661,374.008 335.006,372.243 333.144,369.89C331.624,367.93 329.835,366.361 327.776,365.184C325.717,364.008 322.923,363.42 319.393,363.42C315.766,363.42 312.751,364.192 310.349,365.736C307.947,367.28 306.746,369.204 306.746,371.508C306.746,373.616 307.628,375.344 309.393,376.692C311.158,378.04 313.535,379.155 316.525,380.038C319.516,380.92 323.634,381.999 328.879,383.273C335.104,384.793 340.19,386.607 344.137,388.715C348.083,390.822 351.073,393.31 353.107,396.178C355.142,399.046 356.159,402.318 356.159,405.994ZM192.404,407.392C192.404,409.892 191.657,412.563 190.161,415.407C188.666,418.25 186.387,420.958 183.323,423.532C180.259,426.105 176.399,428.177 171.742,429.745C167.085,431.314 161.84,432.098 156.006,432.098C143.604,432.098 133.922,428.483 126.961,421.252C120,414.022 116.52,404.328 116.52,392.171C116.52,383.935 118.113,376.655 121.299,370.332C124.485,364.008 129.093,359.118 135.123,355.662C141.153,352.206 148.359,350.478 156.741,350.478C161.938,350.478 166.705,351.238 171.043,352.758C175.382,354.277 179.058,356.238 182.073,358.64C185.088,361.042 187.392,363.604 188.985,366.324C190.578,369.045 191.375,371.582 191.375,373.935C191.375,376.337 190.48,378.371 188.691,380.038C186.902,381.705 184.732,382.538 182.183,382.538C180.517,382.538 179.132,382.109 178.029,381.251C176.926,380.393 175.688,379.008 174.315,377.097C171.864,373.371 169.303,370.577 166.631,368.714C163.96,366.851 160.565,365.92 156.447,365.92C150.516,365.92 145.736,368.236 142.109,372.868C138.481,377.501 136.667,383.837 136.667,391.876C136.667,395.651 137.133,399.119 138.064,402.281C138.996,405.443 140.344,408.139 142.109,410.37C143.873,412.6 146.006,414.291 148.506,415.443C151.006,416.595 153.751,417.171 156.741,417.171C160.761,417.171 164.205,416.24 167.073,414.377C169.94,412.514 172.477,409.671 174.683,405.847C175.909,403.592 177.232,401.828 178.654,400.553C180.075,399.279 181.816,398.641 183.874,398.641C186.326,398.641 188.36,399.573 189.978,401.436C191.595,403.298 192.404,405.284 192.404,407.392ZM377,105L279.1,7C274.6,2.5 268.5,0 262.1,0L256,0L256,128L384,128L384,121.9C384,115.6 381.5,109.5 377,105Z" style="fill-rule:nonzero;"/>
</svg>
