<?xml version="1.0" encoding="UTF-8" standalone="no"?>
<!DOCTYPE svg PUBLIC "-//W3C//DTD SVG 1.1//EN" "http://www.w3.org/Graphics/SVG/1.1/DTD/svg11.dtd">
<svg width="100%" height="100%" viewBox="0 0 384 512" version="1.1" xmlns="http://www.w3.org/2000/svg" xmlns:xlink="http://www.w3.org/1999/xlink" xml:space="preserve" xmlns:serif="http://www.serif.com/" style="fill-rule:evenodd;clip-rule:evenodd;stroke-linejoin:round;stroke-miterlimit:2;">
    <path d="M224,136L224,0L24,0C10.7,0 0,10.7 0,24L0,488C0,501.3 10.7,512 24,512L360,512C373.3,512 384,501.3 384,488L384,160L248,160C234.8,160 224,149.2 224,136ZM316.66,373.122C316.66,383.758 314.071,392.864 308.894,400.441C303.718,408.018 296.07,413.76 285.952,417.666C275.834,421.572 263.527,423.525 249.032,423.525C235.196,423.525 223.337,421.407 213.454,417.172C203.571,412.936 196.276,407.642 191.57,401.288C186.864,394.935 184.511,388.558 184.511,382.158C184.511,377.922 186.017,374.299 189.029,371.287C192.041,368.275 195.853,366.769 200.465,366.769C204.512,366.769 207.618,367.757 209.783,369.734C211.948,371.71 214.018,374.487 215.995,378.064C219.948,384.934 224.678,390.064 230.184,393.453C235.69,396.841 243.197,398.535 252.703,398.535C260.421,398.535 266.751,396.818 271.692,393.382C276.634,389.947 279.104,386.017 279.104,381.593C279.104,374.816 276.54,369.875 271.41,366.769C266.28,363.663 257.833,360.698 246.067,357.874C232.796,354.58 221.995,351.121 213.665,347.497C205.336,343.873 198.676,339.097 193.688,333.167C188.699,327.237 186.205,319.943 186.205,311.283C186.205,303.565 188.511,296.271 193.123,289.4C197.735,282.529 204.536,277.046 213.524,272.952C222.513,268.857 233.361,266.81 246.067,266.81C256.044,266.81 265.01,267.845 272.963,269.916C280.916,271.987 287.552,274.764 292.87,278.246C298.188,281.729 302.235,285.588 305.012,289.823C307.788,294.059 309.177,298.2 309.177,302.247C309.177,306.671 307.694,310.295 304.729,313.119C301.765,315.942 297.553,317.354 292.093,317.354C288.14,317.354 284.775,316.225 281.999,313.966C279.222,311.707 276.045,308.318 272.469,303.8C269.551,300.036 266.116,297.024 262.162,294.765C258.209,292.506 252.844,291.376 246.067,291.376C239.102,291.376 233.314,292.859 228.702,295.824C224.09,298.788 221.784,302.483 221.784,306.907C221.784,310.954 223.478,314.272 226.866,316.86C230.255,319.448 234.82,321.59 240.561,323.284C246.303,324.978 254.209,327.049 264.28,329.496C276.234,332.414 285.999,335.896 293.576,339.944C301.153,343.991 306.894,348.768 310.8,354.274C314.707,359.78 316.66,366.063 316.66,373.122ZM92.317,270.199L96.553,270.199L96.553,247.044C96.553,240.832 96.718,235.961 97.047,232.432C97.377,228.902 98.294,225.867 99.8,223.325C101.306,220.69 103.471,218.549 106.295,216.901C109.118,215.254 112.271,214.431 115.754,214.431C120.648,214.431 125.072,216.266 129.025,219.937C131.661,222.384 133.332,225.372 134.037,228.902C134.743,232.432 135.096,237.444 135.096,243.938L135.096,270.199L149.215,270.199C154.674,270.199 158.839,271.493 161.71,274.081C164.58,276.67 166.016,279.987 166.016,284.035C166.016,289.211 163.969,292.835 159.874,294.906C155.78,296.977 149.921,298.012 142.297,298.012L135.096,298.012L135.096,368.887C135.096,374.91 135.308,379.546 135.732,382.793C136.155,386.04 137.285,388.676 139.12,390.7C140.955,392.723 143.944,393.735 148.085,393.735C150.344,393.735 153.403,393.335 157.262,392.535C161.121,391.735 164.133,391.335 166.298,391.335C169.404,391.335 172.204,392.582 174.699,395.076C177.193,397.57 178.44,400.653 178.44,404.324C178.44,410.536 175.052,415.289 168.275,418.583C161.498,421.878 151.756,423.525 139.049,423.525C127.002,423.525 117.872,421.501 111.66,417.454C105.448,413.407 101.377,407.806 99.447,400.653C97.518,393.5 96.553,383.946 96.553,371.993L96.553,298.012L91.47,298.012C85.917,298.012 81.682,296.694 78.764,294.059C75.846,291.423 74.387,288.082 74.387,284.035C74.387,279.987 75.916,276.67 78.975,274.081C82.034,271.493 86.482,270.199 92.317,270.199ZM377,105L279.1,7C274.6,2.5 268.5,0 262.1,0L256,0L256,128L384,128L384,121.9C384,115.6 381.5,109.5 377,105Z" style="fill-rule:nonzero;"/>
</svg>
