<?xml version="1.0" encoding="UTF-8" standalone="no"?>
<!DOCTYPE svg PUBLIC "-//W3C//DTD SVG 1.1//EN" "http://www.w3.org/Graphics/SVG/1.1/DTD/svg11.dtd">
<svg width="100%" height="100%" viewBox="0 0 384 512" version="1.1" xmlns="http://www.w3.org/2000/svg" xmlns:xlink="http://www.w3.org/1999/xlink" xml:space="preserve" xmlns:serif="http://www.serif.com/" style="fill-rule:evenodd;clip-rule:evenodd;stroke-linejoin:round;stroke-miterlimit:2;">
    <path d="M224,136L224,0L24,0C10.7,0 0,10.7 0,24L0,488C0,501.3 10.7,512 24,512L360,512C373.3,512 384,501.3 384,488L384,160L248,160C234.8,160 224,149.2 224,136ZM228.015,401.794C228.015,409.165 226.221,415.477 222.633,420.729C219.045,425.98 213.745,429.96 206.732,432.667C199.719,435.374 191.189,436.728 181.143,436.728C171.553,436.728 163.333,435.26 156.483,432.324C149.634,429.389 144.578,425.719 141.316,421.316C138.054,416.912 136.423,412.492 136.423,408.056C136.423,405.121 137.467,402.609 139.555,400.522C141.642,398.434 144.284,397.39 147.481,397.39C150.286,397.39 152.439,398.075 153.939,399.445C155.44,400.815 156.875,402.74 158.245,405.219C160.985,409.981 164.263,413.536 168.079,415.885C171.896,418.233 177.098,419.408 183.687,419.408C189.036,419.408 193.424,418.217 196.849,415.836C200.273,413.455 201.986,410.731 201.986,407.665C201.986,402.968 200.208,399.543 196.653,397.39C193.097,395.237 187.242,393.182 179.088,391.225C169.89,388.942 162.404,386.545 156.63,384.033C150.857,381.521 146.241,378.211 142.784,374.101C139.326,369.991 137.597,364.935 137.597,358.933C137.597,353.584 139.196,348.528 142.392,343.766C145.589,339.004 150.302,335.203 156.532,332.366C162.762,329.528 170.281,328.109 179.088,328.109C186.003,328.109 192.217,328.827 197.729,330.262C203.242,331.697 207.841,333.622 211.527,336.035C215.213,338.449 218.018,341.124 219.942,344.059C221.867,346.995 222.829,349.865 222.829,352.671C222.829,355.737 221.801,358.248 219.747,360.205C217.692,362.162 214.772,363.141 210.989,363.141C208.249,363.141 205.916,362.358 203.992,360.793C202.067,359.227 199.866,356.878 197.387,353.747C195.364,351.138 192.983,349.05 190.243,347.484C187.503,345.919 183.785,345.136 179.088,345.136C174.26,345.136 170.248,346.163 167.052,348.218C163.855,350.273 162.257,352.834 162.257,355.9C162.257,358.705 163.431,361.005 165.78,362.799C168.128,364.593 171.292,366.077 175.272,367.251C179.251,368.425 184.731,369.86 191.711,371.557C199.996,373.579 206.764,375.993 212.016,378.798C217.268,381.603 221.247,384.914 223.954,388.73C226.662,392.546 228.015,396.901 228.015,401.794ZM308.55,425.67L289.174,397.194L269.31,425.67C266.44,429.65 264.009,432.487 262.02,434.184C260.03,435.88 257.502,436.728 254.436,436.728C251.044,436.728 248.157,435.668 245.776,433.548C243.395,431.427 242.204,428.997 242.204,426.257C242.204,423.452 244.031,419.44 247.684,414.221L271.854,379.581L250.424,350.713C246.706,345.951 244.846,341.809 244.846,338.286C244.846,335.546 245.955,333.165 248.173,331.143C250.391,329.12 253.294,328.109 256.882,328.109C260.014,328.109 262.607,328.99 264.662,330.751C266.717,332.512 269.114,335.285 271.854,339.069L289.174,362.75L306.005,339.069C308.811,335.155 311.241,332.349 313.296,330.653C315.351,328.957 317.911,328.109 320.977,328.109C324.5,328.109 327.419,329.104 329.735,331.094C332.051,333.083 333.209,335.481 333.209,338.286C333.209,340.308 332.736,342.249 331.79,344.108C330.844,345.968 329.393,348.169 327.436,350.713L306.005,379.581L330.176,414.221C333.959,419.636 335.851,423.713 335.851,426.453C335.851,429.258 334.677,431.672 332.328,433.694C329.98,435.717 327.077,436.728 323.619,436.728C320.553,436.728 317.96,435.847 315.84,434.086C313.72,432.324 311.29,429.519 308.55,425.67ZM72.524,330.458L75.46,330.458L75.46,314.409C75.46,310.104 75.574,306.728 75.802,304.281C76.031,301.835 76.667,299.731 77.71,297.97C78.754,296.143 80.255,294.659 82.212,293.517C84.169,292.376 86.354,291.805 88.768,291.805C92.16,291.805 95.226,293.077 97.966,295.621C99.793,297.317 100.951,299.389 101.44,301.835C101.929,304.281 102.174,307.755 102.174,312.257L102.174,330.458L111.96,330.458C115.743,330.458 118.63,331.355 120.62,333.149C122.609,334.943 123.604,337.242 123.604,340.047C123.604,343.635 122.185,346.147 119.348,347.582C116.51,349.017 112.449,349.735 107.165,349.735L102.174,349.735L102.174,398.858C102.174,403.033 102.321,406.246 102.614,408.497C102.908,410.747 103.691,412.574 104.963,413.977C106.235,415.379 108.306,416.08 111.177,416.08C112.742,416.08 114.863,415.803 117.537,415.249C120.212,414.694 122.299,414.417 123.8,414.417C125.953,414.417 127.894,415.281 129.622,417.01C131.351,418.739 132.215,420.875 132.215,423.42C132.215,427.725 129.867,431.02 125.17,433.303C120.473,435.586 113.721,436.728 104.914,436.728C96.564,436.728 90.236,435.325 85.93,432.52C81.625,429.715 78.803,425.833 77.466,420.875C76.128,415.917 75.46,409.296 75.46,401.011L75.46,349.735L71.937,349.735C68.088,349.735 65.152,348.822 63.13,346.995C61.108,345.168 60.096,342.852 60.096,340.047C60.096,337.242 61.157,334.943 63.277,333.149C65.397,331.355 68.479,330.458 72.524,330.458ZM377,105L279.1,7C274.6,2.5 268.5,0 262.1,0L256,0L256,128L384,128L384,121.9C384,115.6 381.5,109.5 377,105Z" style="fill-rule:nonzero;"/>
</svg>
