<?xml version="1.0" encoding="UTF-8" standalone="no"?>
<!DOCTYPE svg PUBLIC "-//W3C//DTD SVG 1.1//EN" "http://www.w3.org/Graphics/SVG/1.1/DTD/svg11.dtd">
<svg width="100%" height="100%" viewBox="0 0 161 49" version="1.1" xmlns="http://www.w3.org/2000/svg" xmlns:xlink="http://www.w3.org/1999/xlink" xml:space="preserve" xmlns:serif="http://www.serif.com/" style="fill-rule:evenodd;clip-rule:evenodd;stroke-linejoin:round;stroke-miterlimit:2;">
    <g transform="matrix(1,0,0,1,-521.037,-332.432)">
        <g id="Artboard3" transform="matrix(3.81528,0,0,1.15349,127.3,332.328)">
            <rect x="103.2" y="0.091" width="42.116" height="42.116" style="fill:none;"/>
            <g transform="matrix(0.361158,0,0,0.97973,-85.0569,-327.923)">
                <path d="M637.83,339.965C637.83,337.117 635.934,334.806 633.598,334.806L525.522,334.806C523.187,334.806 521.291,337.117 521.291,339.965L521.291,372.623C521.291,375.471 523.187,377.783 525.522,377.783L633.598,377.783C635.934,377.783 637.83,375.471 637.83,372.623L637.83,339.965Z" style="fill:rgb(13,17,23);"/>
            </g>
            <g transform="matrix(0.0785546,0,0,0.041081,105.402,28.6617)">
                <path d="M17.665,26.442L10.982,26.442L10.982,143.012L7.287,143.012L7.287,26.442L0.662,26.442L0.662,7.449L17.665,7.449L17.665,26.442Z" style="fill:white;fill-rule:nonzero;"/>
                <path d="M23.657,53.257C24.206,49.223 24.854,46.072 25.6,43.807C26.346,41.541 27.175,40.408 28.088,40.408C28.863,40.408 29.57,41.091 30.207,42.457C30.845,43.822 31.39,46.01 31.842,49.021C32.293,52.031 32.641,55.942 32.887,60.752C33.132,65.563 33.255,71.382 33.255,78.21L33.255,143.012L29.678,143.012L29.678,78.024C29.678,71.072 29.44,66.153 28.964,63.266C28.488,60.38 27.788,58.937 26.866,58.937C26.12,58.937 25.48,60.023 24.945,62.195C24.41,64.368 23.98,67.316 23.657,71.041L23.657,143.012L20.079,143.012L20.079,0L23.657,0L23.657,53.257Z" style="fill:white;fill-rule:nonzero;"/>
                <path d="M43.883,144.874C42.706,144.874 41.646,143.633 40.704,141.15C39.761,138.667 38.962,135.253 38.304,130.908C37.646,126.563 37.141,121.412 36.788,115.453C36.434,109.494 36.258,103.069 36.258,96.18L36.258,92.455C36.258,84.51 36.444,77.325 36.817,70.901C37.19,64.477 37.7,59.014 38.348,54.514C38.996,50.014 39.759,46.538 40.637,44.086C41.516,41.634 42.46,40.408 43.471,40.408C44.629,40.408 45.635,41.634 46.489,44.086C47.343,46.538 48.049,49.967 48.609,54.374C49.168,58.782 49.585,64.027 49.86,70.11C50.135,76.193 50.272,82.865 50.272,90.128L50.272,99.811L39.864,99.811C39.914,103.721 40.044,107.321 40.255,110.611C40.466,113.901 40.753,116.741 41.116,119.13C41.479,121.52 41.908,123.398 42.404,124.763C42.899,126.129 43.461,126.812 44.089,126.812C44.973,126.812 45.741,125.694 46.393,123.46C47.046,121.225 47.613,118.153 48.093,114.242L50.022,125.881C49.767,128.301 49.45,130.645 49.072,132.91C48.695,135.176 48.253,137.193 47.748,138.962C47.242,140.731 46.67,142.159 46.033,143.245C45.395,144.331 44.678,144.874 43.883,144.874ZM43.456,58.564C42.475,58.564 41.682,60.737 41.079,65.082C40.475,69.427 40.09,75.479 39.923,83.238L46.739,83.238L46.739,81.562C46.71,78.582 46.634,75.711 46.511,72.949C46.388,70.187 46.199,67.735 45.944,65.594C45.689,63.452 45.358,61.745 44.951,60.473C44.543,59.201 44.045,58.564 43.456,58.564Z" style="fill:white;fill-rule:nonzero;"/>
                <path d="M73.252,85.565L64.625,85.565L64.625,143.012L60.901,143.012L60.901,7.449L74.518,7.449L74.518,26.442L64.625,26.442L64.625,66.758L73.252,66.758L73.252,85.565Z" style="fill:white;fill-rule:nonzero;"/>
                <path d="M86.442,133.143C85.941,136.867 85.323,139.754 84.587,141.802C83.851,143.85 82.977,144.874 81.966,144.874C81.181,144.874 80.467,144.176 79.825,142.78C79.182,141.383 78.63,139.179 78.168,136.169C77.707,133.159 77.349,129.279 77.094,124.531C76.839,119.782 76.711,114.087 76.711,107.445L76.711,42.271L80.288,42.271L80.288,107.632C80.288,111.294 80.357,114.32 80.494,116.71C80.632,119.099 80.816,121.024 81.046,122.482C81.277,123.941 81.544,124.965 81.849,125.555C82.153,126.144 82.472,126.439 82.806,126.439C83.728,126.439 84.474,125.384 85.043,123.274C85.612,121.163 86.039,118.277 86.324,114.615L86.324,42.271L89.901,42.271L89.901,143.012L86.53,143.012L86.442,133.143Z" style="fill:white;fill-rule:nonzero;"/>
                <rect x="93.773" y="0" width="3.577" height="143.012" style="fill:white;fill-rule:nonzero;"/>
                <rect x="101.472" y="0" width="3.577" height="143.012" style="fill:white;fill-rule:nonzero;"/>
                <path d="M117.871,115.639C117.871,114.025 117.829,112.52 117.746,111.123C117.662,109.727 117.498,108.423 117.253,107.213C117.007,106.002 116.661,104.87 116.215,103.814C115.768,102.759 115.187,101.766 114.47,100.835C113.617,99.718 112.839,98.321 112.137,96.645C111.435,94.969 110.834,92.936 110.334,90.547C109.833,88.157 109.443,85.348 109.164,82.12C108.884,78.893 108.744,75.168 108.744,70.948C108.744,66.851 108.886,62.956 109.171,59.263C109.455,55.569 109.865,52.326 110.4,49.533C110.935,46.74 111.583,44.521 112.343,42.876C113.104,41.231 113.955,40.408 114.897,40.408C115.889,40.408 116.779,41.231 117.569,42.876C118.359,44.521 119.029,46.786 119.579,49.673C120.128,52.559 120.548,55.957 120.837,59.868C121.127,63.778 121.272,67.999 121.272,72.53L117.694,72.53C117.694,70.606 117.635,68.728 117.518,66.897C117.4,65.066 117.223,63.437 116.988,62.009C116.752,60.582 116.46,59.449 116.112,58.611C115.763,57.773 115.359,57.354 114.897,57.354C114.446,57.354 114.053,57.711 113.72,58.425C113.386,59.138 113.109,60.07 112.888,61.218C112.667,62.366 112.503,63.701 112.395,65.221C112.287,66.742 112.233,68.341 112.233,70.016C112.233,71.692 112.282,73.182 112.38,74.486C112.478,75.789 112.652,76.968 112.903,78.024C113.153,79.079 113.489,80.056 113.911,80.957C114.333,81.857 114.863,82.741 115.501,83.61C116.423,84.851 117.25,86.31 117.981,87.986C118.713,89.662 119.331,91.71 119.836,94.131C120.342,96.552 120.727,99.407 120.992,102.697C121.257,105.987 121.389,109.897 121.389,114.428C121.389,118.898 121.237,122.994 120.933,126.719C120.629,130.443 120.194,133.655 119.63,136.355C119.066,139.055 118.386,141.15 117.591,142.64C116.796,144.13 115.913,144.874 114.941,144.874C113.852,144.874 112.888,143.897 112.049,141.942C111.21,139.986 110.506,137.426 109.936,134.26C109.367,131.095 108.938,127.51 108.648,123.506C108.359,119.503 108.214,115.422 108.214,111.263L111.688,111.263C111.718,114.366 111.83,116.973 112.027,119.084C112.223,121.194 112.473,122.901 112.778,124.205C113.082,125.508 113.425,126.455 113.808,127.044C114.191,127.634 114.583,127.929 114.986,127.929C115.928,127.929 116.644,126.796 117.135,124.531C117.626,122.265 117.871,119.301 117.871,115.639Z" style="fill:white;fill-rule:nonzero;"/>
                <path d="M128.985,17.783L128.985,42.271L131.797,42.271L131.797,59.03L128.985,59.03L128.985,115.266C128.985,117.563 129.025,119.425 129.103,120.853C129.182,122.281 129.294,123.382 129.442,124.158C129.589,124.934 129.763,125.462 129.964,125.741C130.165,126.02 130.389,126.16 130.634,126.16C130.879,126.16 131.117,126.051 131.348,125.834C131.579,125.617 131.758,125.415 131.885,125.229L131.885,142.733C131.601,143.23 131.27,143.711 130.892,144.176C130.514,144.642 130.06,144.874 129.53,144.874C128.941,144.874 128.394,144.378 127.889,143.385C127.383,142.392 126.946,140.778 126.578,138.543C126.21,136.309 125.923,133.391 125.717,129.791C125.511,126.191 125.408,121.784 125.408,116.57L125.408,59.03L122.788,59.03L122.788,42.271L125.408,42.271L125.408,17.783L128.985,17.783Z" style="fill:white;fill-rule:nonzero;"/>
                <path d="M144.045,143.012C143.947,141.833 143.866,140.436 143.802,138.823C143.738,137.209 143.682,135.471 143.633,133.609C143.397,135.16 143.135,136.619 142.845,137.985C142.556,139.35 142.237,140.545 141.888,141.569C141.54,142.593 141.162,143.4 140.755,143.99C140.347,144.58 139.913,144.874 139.452,144.874C138.657,144.874 137.926,144.114 137.259,142.593C136.591,141.073 136.019,138.962 135.544,136.262C135.068,133.562 134.695,130.381 134.425,126.719C134.155,123.056 134.02,119.084 134.02,114.801C134.02,109.401 134.182,104.621 134.506,100.462C134.83,96.304 135.301,92.828 135.919,90.034C136.537,87.241 137.295,85.115 138.193,83.657C139.091,82.198 140.114,81.469 141.263,81.469L143.515,81.469L143.515,74.858C143.515,69.644 143.284,65.47 142.823,62.335C142.362,59.201 141.66,57.633 140.718,57.633C140.296,57.633 139.913,57.99 139.57,58.704C139.226,59.418 138.934,60.38 138.694,61.59C138.453,62.801 138.267,64.244 138.134,65.92C138.002,67.596 137.936,69.396 137.936,71.32L134.358,71.32C134.358,67.347 134.513,63.514 134.822,59.821C135.131,56.128 135.571,52.838 136.14,49.952C136.709,47.066 137.398,44.753 138.208,43.015C139.018,41.277 139.923,40.408 140.924,40.408C141.817,40.408 142.641,41.138 143.397,42.596C144.153,44.055 144.805,46.228 145.355,49.114C145.905,52 146.332,55.6 146.636,59.914C146.94,64.228 147.092,69.272 147.092,75.044L147.092,119.736C147.092,128.798 147.293,136.029 147.696,141.43L147.696,143.012L144.045,143.012ZM140.114,126.719C140.527,126.719 140.912,126.377 141.27,125.694C141.628,125.012 141.952,124.112 142.242,122.994C142.531,121.877 142.784,120.589 143,119.13C143.216,117.672 143.387,116.198 143.515,114.708L143.515,95.714L141.586,95.714C140.262,95.714 139.265,97.173 138.598,100.09C137.931,103.007 137.597,107.135 137.597,112.473C137.597,114.522 137.651,116.415 137.759,118.153C137.867,119.891 138.029,121.396 138.245,122.668C138.461,123.941 138.723,124.934 139.032,125.648C139.342,126.362 139.702,126.719 140.114,126.719Z" style="fill:white;fill-rule:nonzero;"/>
                <path d="M157.382,126.812C157.814,126.812 158.219,126.393 158.597,125.555C158.974,124.717 159.303,123.537 159.583,122.017C159.863,120.496 160.088,118.68 160.26,116.57C160.432,114.46 160.527,112.163 160.547,109.68L163.918,109.68C163.889,114.522 163.7,119.084 163.351,123.367C163.003,127.65 162.537,131.389 161.953,134.586C161.369,137.783 160.689,140.297 159.914,142.128C159.139,143.959 158.31,144.874 157.426,144.874C156.2,144.874 155.132,143.54 154.224,140.871C153.317,138.202 152.561,134.571 151.957,129.977C151.354,125.384 150.905,120.015 150.61,113.87C150.316,107.725 150.169,101.207 150.169,94.317L150.169,91.059C150.169,84.169 150.316,77.651 150.61,71.506C150.905,65.361 151.354,59.976 151.957,55.352C152.561,50.728 153.314,47.081 154.217,44.412C155.12,41.743 156.185,40.408 157.412,40.408C158.373,40.408 159.249,41.34 160.039,43.202C160.829,45.064 161.506,47.671 162.071,51.023C162.635,54.374 163.077,58.378 163.396,63.033C163.715,67.689 163.889,72.81 163.918,78.396L160.547,78.396C160.527,75.727 160.442,73.182 160.29,70.761C160.137,68.341 159.926,66.23 159.657,64.43C159.387,62.63 159.06,61.202 158.678,60.147C158.295,59.092 157.863,58.564 157.382,58.564C156.656,58.564 156.057,59.511 155.586,61.404C155.115,63.297 154.742,65.765 154.467,68.806C154.193,71.848 154.004,75.324 153.901,79.234C153.798,83.145 153.746,87.086 153.746,91.059L153.746,94.317C153.746,98.414 153.798,102.402 153.901,106.282C154.004,110.161 154.193,113.622 154.467,116.663C154.742,119.705 155.113,122.156 155.579,124.019C156.045,125.881 156.646,126.812 157.382,126.812Z" style="fill:white;fill-rule:nonzero;"/>
                <path d="M171.794,99.811L170.204,110.146L170.204,143.012L166.627,143.012L166.627,0L170.204,0L170.204,82.493L171.323,73.648L175.724,42.271L180.023,42.271L174.105,84.262L180.656,143.012L176.519,143.012L171.794,99.811Z" style="fill:white;fill-rule:nonzero;"/>
                <path d="M202.561,85.565L193.934,85.565L193.934,143.012L190.21,143.012L190.21,7.449L203.827,7.449L203.827,26.442L193.934,26.442L193.934,66.758L202.561,66.758L202.561,85.565Z" style="fill:white;fill-rule:nonzero;"/>
                <path d="M214.382,62.94C214.146,62.692 213.908,62.506 213.668,62.382C213.427,62.258 213.18,62.195 212.924,62.195C212.061,62.195 211.359,63.251 210.819,65.361C210.28,67.472 209.877,70.389 209.612,74.113L209.612,143.012L206.035,143.012L206.035,42.271L209.45,42.271L209.539,53.537C209.941,49.44 210.439,46.228 211.033,43.9C211.627,41.572 212.326,40.408 213.131,40.408C213.337,40.408 213.57,40.548 213.83,40.827C214.09,41.107 214.279,41.402 214.397,41.712L214.382,62.94Z" style="fill:white;fill-rule:nonzero;"/>
                <path d="M225.717,143.012C225.619,141.833 225.538,140.436 225.474,138.823C225.41,137.209 225.354,135.471 225.305,133.609C225.069,135.16 224.807,136.619 224.517,137.985C224.228,139.35 223.909,140.545 223.56,141.569C223.212,142.593 222.834,143.4 222.427,143.99C222.02,144.58 221.585,144.874 221.124,144.874C220.329,144.874 219.598,144.114 218.931,142.593C218.263,141.073 217.692,138.962 217.216,136.262C216.74,133.562 216.367,130.381 216.097,126.719C215.827,123.056 215.692,119.084 215.692,114.801C215.692,109.401 215.854,104.621 216.178,100.462C216.502,96.304 216.973,92.828 217.591,90.034C218.209,87.241 218.967,85.115 219.865,83.657C220.763,82.198 221.786,81.469 222.935,81.469L225.187,81.469L225.187,74.858C225.187,69.644 224.956,65.47 224.495,62.335C224.034,59.201 223.332,57.633 222.39,57.633C221.968,57.633 221.585,57.99 221.242,58.704C220.898,59.418 220.606,60.38 220.366,61.59C220.125,62.801 219.939,64.244 219.806,65.92C219.674,67.596 219.608,69.396 219.608,71.32L216.031,71.32C216.031,67.347 216.185,63.514 216.494,59.821C216.803,56.128 217.243,52.838 217.812,49.952C218.381,47.066 219.07,44.753 219.88,43.015C220.69,41.277 221.595,40.408 222.596,40.408C223.489,40.408 224.314,41.138 225.069,42.596C225.825,44.055 226.478,46.228 227.027,49.114C227.577,52 228.004,55.6 228.308,59.914C228.612,64.228 228.764,69.272 228.764,75.044L228.764,119.736C228.764,128.798 228.965,136.029 229.368,141.43L229.368,143.012L225.717,143.012ZM221.786,126.719C222.199,126.719 222.584,126.377 222.942,125.694C223.3,125.012 223.624,124.112 223.914,122.994C224.203,121.877 224.456,120.589 224.672,119.13C224.888,117.672 225.059,116.198 225.187,114.708L225.187,95.714L223.259,95.714C221.934,95.714 220.938,97.173 220.27,100.09C219.603,103.007 219.269,107.135 219.269,112.473C219.269,114.522 219.323,116.415 219.431,118.153C219.539,119.891 219.701,121.396 219.917,122.668C220.133,123.941 220.395,124.934 220.704,125.648C221.014,126.362 221.374,126.719 221.786,126.719Z" style="fill:white;fill-rule:nonzero;"/>
                <path d="M235.874,42.271L235.977,52.792C236.507,48.881 237.153,45.84 237.913,43.667C238.674,41.495 239.56,40.408 240.57,40.408C241.542,40.408 242.411,41.634 243.176,44.086C243.942,46.538 244.53,50.464 244.943,55.864C245.473,51.147 246.142,47.391 246.952,44.598C247.762,41.805 248.721,40.408 249.83,40.408C250.654,40.408 251.39,41.107 252.038,42.503C252.686,43.9 253.233,46.103 253.679,49.114C254.126,52.124 254.469,55.988 254.71,60.706C254.95,65.423 255.071,71.103 255.071,77.744L255.071,143.012L251.493,143.012L251.493,77.651C251.493,73.927 251.427,70.87 251.295,68.48C251.162,66.09 250.971,64.182 250.721,62.754C250.47,61.326 250.171,60.333 249.823,59.775C249.474,59.216 249.079,58.937 248.638,58.937C247.823,58.937 247.158,60.318 246.643,63.08C246.128,65.842 245.767,69.458 245.561,73.927C245.561,74.237 245.563,74.563 245.568,74.905C245.573,75.246 245.576,75.572 245.576,75.882L245.576,143.012L241.998,143.012L241.998,77.931C241.998,74.392 241.932,71.413 241.8,68.992C241.667,66.571 241.476,64.616 241.226,63.127C240.975,61.637 240.673,60.566 240.32,59.914C239.967,59.263 239.569,58.937 239.128,58.937C238.362,58.937 237.732,59.93 237.236,61.916C236.741,63.902 236.355,66.603 236.081,70.016L236.081,143.012L232.503,143.012L232.503,42.271L235.874,42.271Z" style="fill:white;fill-rule:nonzero;"/>
                <path d="M265.758,144.874C264.58,144.874 263.52,143.633 262.578,141.15C261.636,138.667 260.836,135.253 260.179,130.908C259.521,126.563 259.016,121.412 258.663,115.453C258.309,109.494 258.133,103.069 258.133,96.18L258.133,92.455C258.133,84.51 258.319,77.325 258.692,70.901C259.065,64.477 259.575,59.014 260.223,54.514C260.871,50.014 261.634,46.538 262.512,44.086C263.39,41.634 264.335,40.408 265.346,40.408C266.504,40.408 267.51,41.634 268.364,44.086C269.217,46.538 269.924,49.967 270.483,54.374C271.043,58.782 271.46,64.027 271.735,70.11C272.01,76.193 272.147,82.865 272.147,90.128L272.147,99.811L261.739,99.811C261.788,103.721 261.918,107.321 262.129,110.611C262.34,113.901 262.627,116.741 262.99,119.13C263.354,121.52 263.783,123.398 264.279,124.763C264.774,126.129 265.336,126.812 265.964,126.812C266.847,126.812 267.615,125.694 268.268,123.46C268.921,121.225 269.487,118.153 269.968,114.242L271.897,125.881C271.642,128.301 271.325,130.645 270.947,132.91C270.569,135.176 270.128,137.193 269.622,138.962C269.117,140.731 268.545,142.159 267.907,143.245C267.269,144.331 266.553,144.874 265.758,144.874ZM265.331,58.564C264.35,58.564 263.557,60.737 262.954,65.082C262.35,69.427 261.965,75.479 261.798,83.238L268.614,83.238L268.614,81.562C268.584,78.582 268.508,75.711 268.386,72.949C268.263,70.187 268.074,67.735 267.819,65.594C267.564,63.452 267.233,61.745 266.825,60.473C266.418,59.201 265.92,58.564 265.331,58.564Z" style="fill:white;fill-rule:nonzero;"/>
                <path d="M288.914,111.821L291.446,42.271L294.935,42.271L290.592,143.012L287.648,143.012L284.233,73.834L280.876,143.012L277.932,143.012L273.575,42.271L277.064,42.271L279.64,111.077L282.908,42.271L285.602,42.271L288.914,111.821Z" style="fill:white;fill-rule:nonzero;"/>
                <path d="M296.657,91.71C296.657,84.386 296.827,77.605 297.165,71.367C297.504,65.128 297.99,59.713 298.623,55.119C299.256,50.526 300.029,46.926 300.941,44.319C301.854,41.712 302.889,40.408 304.047,40.408C305.215,40.408 306.26,41.712 307.183,44.319C308.105,46.926 308.883,50.526 309.516,55.119C310.149,59.713 310.633,65.128 310.966,71.367C311.3,77.605 311.467,84.386 311.467,91.71L311.467,93.666C311.467,100.99 311.3,107.787 310.966,114.056C310.633,120.325 310.149,125.741 309.516,130.303C308.883,134.865 308.108,138.435 307.19,141.011C306.273,143.586 305.235,144.874 304.077,144.874C302.909,144.874 301.866,143.586 300.949,141.011C300.031,138.435 299.256,134.865 298.623,130.303C297.99,125.741 297.504,120.325 297.165,114.056C296.827,107.787 296.657,100.99 296.657,93.666L296.657,91.71ZM300.235,93.666C300.235,98.197 300.308,102.48 300.455,106.514C300.603,110.549 300.833,114.072 301.147,117.082C301.461,120.092 301.861,122.467 302.347,124.205C302.833,125.943 303.409,126.812 304.077,126.812C304.734,126.812 305.306,125.943 305.792,124.205C306.278,122.467 306.675,120.092 306.984,117.082C307.293,114.072 307.524,110.549 307.676,106.514C307.828,102.48 307.904,98.197 307.904,93.666L307.904,91.71C307.904,87.241 307.828,83.005 307.676,79.001C307.524,74.998 307.291,71.491 306.977,68.48C306.663,65.47 306.263,63.064 305.777,61.264C305.291,59.464 304.715,58.564 304.047,58.564C303.38,58.564 302.808,59.464 302.332,61.264C301.856,63.064 301.461,65.47 301.147,68.48C300.833,71.491 300.603,74.998 300.455,79.001C300.308,83.005 300.235,87.241 300.235,91.71L300.235,93.666Z" style="fill:white;fill-rule:nonzero;"/>
                <path d="M322.831,62.94C322.596,62.692 322.358,62.506 322.117,62.382C321.877,62.258 321.629,62.195 321.374,62.195C320.51,62.195 319.809,63.251 319.269,65.361C318.729,67.472 318.327,70.389 318.062,74.113L318.062,143.012L314.485,143.012L314.485,42.271L317.9,42.271L317.988,53.537C318.39,49.44 318.889,46.228 319.482,43.9C320.076,41.572 320.775,40.408 321.58,40.408C321.786,40.408 322.019,40.548 322.279,40.827C322.539,41.107 322.728,41.402 322.846,41.712L322.831,62.94Z" style="fill:white;fill-rule:nonzero;"/>
                <path d="M330.265,99.811L328.676,110.146L328.676,143.012L325.098,143.012L325.098,0L328.676,0L328.676,82.493L329.794,73.648L334.196,42.271L338.494,42.271L332.577,84.262L339.127,143.012L334.991,143.012L330.265,99.811Z" style="fill:white;fill-rule:nonzero;"/>
            </g>
            <g transform="matrix(0.207986,0,0,0.687936,130.831,-374.976)">
                <g transform="matrix(1.08818,0,0,1.08818,0.292156,-169.452)">
                    <path d="M15.32,686.171C15.32,697.165 24.232,706.078 35.227,706.078C46.222,706.078 55.134,697.165 55.134,686.171L35.227,686.171L15.32,686.171Z" style="fill:white;"/>
                </g>
                <g transform="matrix(1,0,0,1,0.0701575,-93.6415)">
                    <path d="M48.278,668.517L49.107,643.921L55.958,665.051L59.396,668.517L48.278,668.517Z" style="fill:rgb(255,0,89);"/>
                </g>
                <g transform="matrix(1,0,0,1,0.0701575,-93.6415)">
                    <path d="M46.533,668.517L22,668.517L22,653.517C30.178,662.464 38.355,664.147 46.533,653.517L46.533,668.517Z" style="fill:rgb(159,230,255);"/>
                </g>
                <g transform="matrix(1,0,0,1,0.0701575,-93.6415)">
                    <path d="M35.343,668.517L26.8,668.517L26.789,650.513L35.367,650.513L35.343,668.517Z" style="fill:rgb(42,170,215);"/>
                </g>
                <g transform="matrix(1,0,0,1,0.0701575,-93.6415)">
                    <path d="M28.412,668.517L17.36,668.517L17.347,665.82L28.441,665.82L28.412,668.517Z" style="fill:rgb(42,170,215);"/>
                </g>
            </g>
            <g transform="matrix(0.472682,0,0,1.47297,-165.318,-322.126)">
                <path d="M580.125,225.364L580.125,232.082C580.125,232.656 580.033,233.16 579.849,233.592C579.664,234.024 579.412,234.385 579.092,234.675C578.771,234.965 578.396,235.182 577.967,235.327C577.539,235.472 577.079,235.544 576.59,235.544C576.083,235.544 575.614,235.472 575.183,235.327C574.752,235.182 574.378,234.965 574.062,234.675C573.746,234.385 573.499,234.024 573.321,233.592C573.144,233.16 573.055,232.656 573.055,232.082L573.055,225.364L574.692,225.364L574.692,232.082C574.692,232.44 574.737,232.749 574.826,233.009C574.914,233.269 575.041,233.484 575.206,233.654C575.37,233.824 575.57,233.95 575.804,234.03C576.037,234.11 576.3,234.151 576.59,234.151C576.88,234.151 577.143,234.11 577.379,234.03C577.615,233.95 577.815,233.824 577.977,233.654C578.14,233.484 578.265,233.269 578.354,233.009C578.443,232.749 578.487,232.44 578.487,232.082L578.487,225.364L580.125,225.364Z" style="fill:white;fill-rule:nonzero;"/>
                <rect x="581.977" y="225.364" width="1.638" height="10.042" style="fill:white;fill-rule:nonzero;"/>
                <path d="M589.001,228.992L590.99,225.364L592.887,225.364L590.028,230.343L592.952,235.406L591.035,235.406L589.001,231.723L586.961,235.406L585.05,235.406L587.981,230.343L585.115,225.364L587.013,225.364L589.001,228.992Z" style="fill:white;fill-rule:nonzero;"/>
            </g>
        </g>
    </g>
</svg>
