<?xml version="1.0" encoding="UTF-8" standalone="no"?>
<!DOCTYPE svg PUBLIC "-//W3C//DTD SVG 1.1//EN" "http://www.w3.org/Graphics/SVG/1.1/DTD/svg11.dtd">
<svg width="100%" height="100%" viewBox="0 0 108 43" version="1.1" xmlns="http://www.w3.org/2000/svg" xmlns:xlink="http://www.w3.org/1999/xlink" xml:space="preserve" xmlns:serif="http://www.serif.com/" style="fill-rule:evenodd;clip-rule:evenodd;stroke-linejoin:round;stroke-miterlimit:2;">
    <g transform="matrix(1,0,0,1,-526.045,-263.673)">
        <g id="Artboard3" transform="matrix(2.5562,0,0,1,262.245,263.582)">
            <rect x="103.2" y="0.091" width="42.116" height="42.116" style="fill:none;"/>
            <g transform="matrix(0.310431,0,0,0.793524,99.4268,-434.293)">
                <g transform="matrix(1.08818,0,0,1.08818,0.292156,-169.452)">
                    <path d="M15.32,686.171C15.32,697.165 24.232,706.078 35.227,706.078C46.222,706.078 55.134,697.165 55.134,686.171L35.227,686.171L15.32,686.171Z" style="fill:white;"/>
                </g>
                <g transform="matrix(1,0,0,1,0.0701575,-93.6415)">
                    <path d="M48.278,668.517L49.107,643.921L55.958,665.051L59.396,668.517L48.278,668.517Z" style="fill:rgb(255,0,89);"/>
                </g>
                <g transform="matrix(1,0,0,1,0.0701575,-93.6415)">
                    <path d="M46.533,668.517L22,668.517L22,653.517C30.178,662.464 38.355,664.147 46.533,653.517L46.533,668.517Z" style="fill:rgb(159,230,255);"/>
                </g>
                <g transform="matrix(1,0,0,1,0.0701575,-93.6415)">
                    <path d="M35.343,668.517L26.8,668.517L26.789,650.513L35.367,650.513L35.343,668.517Z" style="fill:rgb(42,170,215);"/>
                </g>
                <g transform="matrix(1,0,0,1,0.0701575,-93.6415)">
                    <path d="M28.412,668.517L17.36,668.517L17.347,665.82L28.441,665.82L28.412,668.517Z" style="fill:rgb(42,170,215);"/>
                </g>
            </g>
            <g transform="matrix(0.706273,0,0,1.60345,-283.278,-351.841)">
                <path d="M584.053,225.689L584.053,236.366C584.053,237.28 583.915,238.08 583.639,238.767C583.363,239.454 582.985,240.028 582.505,240.488C582.025,240.949 581.463,241.294 580.82,241.524C580.178,241.755 579.49,241.87 578.756,241.87C577.997,241.87 577.294,241.755 576.648,241.524C576.003,241.294 575.443,240.949 574.969,240.488C574.495,240.028 574.125,239.454 573.859,238.767C573.593,238.08 573.46,237.28 573.46,236.366L573.46,225.689L575.913,225.689L575.913,236.366C575.913,236.937 575.98,237.428 576.113,237.841C576.246,238.254 576.436,238.596 576.682,238.866C576.929,239.136 577.228,239.336 577.578,239.463C577.929,239.591 578.321,239.655 578.756,239.655C579.191,239.655 579.586,239.591 579.939,239.463C580.293,239.336 580.592,239.136 580.835,238.866C581.078,238.596 581.267,238.254 581.4,237.841C581.533,237.428 581.599,236.937 581.599,236.366L581.599,225.689L584.053,225.689Z" style="fill:white;fill-rule:nonzero;"/>
                <rect x="586.828" y="225.689" width="2.454" height="15.962" style="fill:white;fill-rule:nonzero;"/>
                <path d="M597.353,231.455L600.332,225.689L603.176,225.689L598.891,233.604L603.273,241.65L600.401,241.65L597.353,235.796L594.296,241.65L591.433,241.65L595.824,233.604L591.531,225.689L594.374,225.689L597.353,231.455Z" style="fill:white;fill-rule:nonzero;"/>
            </g>
        </g>
    </g>
</svg>
