<?xml version="1.0" encoding="UTF-8" standalone="no"?>
<!DOCTYPE svg PUBLIC "-//W3C//DTD SVG 1.1//EN" "http://www.w3.org/Graphics/SVG/1.1/DTD/svg11.dtd">
<svg width="100%" height="100%" viewBox="0 0 74 74" version="1.1" xmlns="http://www.w3.org/2000/svg" xmlns:xlink="http://www.w3.org/1999/xlink" xml:space="preserve" xmlns:serif="http://www.serif.com/" style="fill-rule:evenodd;clip-rule:evenodd;stroke-linecap:round;stroke-linejoin:round;stroke-miterlimit:1.5;">
    <g transform="matrix(1,0,0,1,-0.000171623,-117.808)">
        <g id="sqaure_bw" transform="matrix(0.930469,0,0,0.967243,5.85093,5.30184)">
            <rect x="-6.288" y="116.316" width="78.625" height="75.636" style="fill:none;"/>
            <g transform="matrix(1.07473,0,0,1.03387,-54.4296,-117.569)">
                <g transform="matrix(1,0,0,1,-329.915,-468.05)">
                    <path d="M447.393,712.006C447.393,702.482 439.66,694.749 430.136,694.749L392.442,694.749C382.917,694.749 375.185,702.482 375.185,712.006L375.185,749.7C375.185,759.224 382.917,766.957 392.442,766.957L430.136,766.957C439.66,766.957 447.393,759.224 447.393,749.7L447.393,712.006Z" style="stroke:black;stroke-width:0.95px;"/>
                </g>
                <g transform="matrix(1.59012,0,0,1.59012,-268.16,-180.554)">
                    <path d="M235.247,294.349C235.247,277.167 221.319,263.239 204.138,263.239L204.138,294.349L235.247,294.349Z" style="fill:white;"/>
                </g>
                <g transform="matrix(1,0,0,1,-83.9354,0)">
                    <path d="M174.65,251.808L139.671,286.788C139.281,287.178 139.281,287.812 139.671,288.202C140.061,288.592 140.695,288.592 141.085,288.202L176.064,253.222C176.455,252.832 176.455,252.198 176.064,251.808C175.674,251.418 175.04,251.418 174.65,251.808Z"/>
                </g>
                <g transform="matrix(1,0,0,1,-166.054,0)">
                    <path d="M256.476,252.515L256.476,287.495C256.476,288.047 256.924,288.495 257.476,288.495C258.028,288.495 258.476,288.047 258.476,287.495L258.476,252.515C258.476,251.963 258.028,251.515 257.476,251.515C256.924,251.515 256.476,251.963 256.476,252.515Z"/>
                </g>
            </g>
        </g>
    </g>
</svg>
